<svg width="26" height="24" viewBox="0 0 26 24" fill="none" xmlns="http://www.w3.org/2000/svg">
<path d="M15.9506 3.45653H23.5465C24.0424 3.45653 24.446 3.86022 24.446 4.35671V11.3495H24.7924V4.35671C24.7924 3.67023 24.2335 3.11133 23.5465 3.11133H16.0114C15.9962 3.22854 15.9787 3.34392 15.9505 3.45653H15.9506ZM1.55362 11.3495V4.35671C1.55362 3.86022 1.95731 3.45664 2.45312 3.45664H10.0493C10.0212 3.34392 10.0037 3.22866 9.98839 3.11144H2.45312C1.76606 3.11144 1.20728 3.67023 1.20728 4.35671V11.3495H1.55362ZM17.596 11.3495C17.4517 8.60144 16.9834 6.87879 16.1659 6.17723C15.8665 5.92046 15.5736 5.83226 15.3527 5.80866C15.3102 5.80215 15.2673 5.79869 15.2243 5.7983H10.7756C10.7316 5.7983 10.6888 5.80256 10.6467 5.80866C10.4256 5.83238 10.1331 5.92035 9.83376 6.17723C9.01624 6.87868 8.54784 8.60133 8.4038 11.3495H17.596Z" fill="#35B6BD"/>
<path d="M12.9999 5.3091C14.4307 5.3091 15.5906 4.1492 15.5906 2.71839C15.5906 1.28758 14.4307 0.127686 12.9999 0.127686C11.5691 0.127686 10.4092 1.28758 10.4092 2.71839C10.4092 4.1492 11.5691 5.3091 12.9999 5.3091Z" fill="#35B6BD"/>
<path d="M23.8846 18.6594V18.7818H2.1154V18.6594H1.20278V19.8627H0V20.9274H1.74602V22.1188C1.74602 22.2218 1.66358 22.3014 1.56318 22.3097V21.7996C1.56319 21.7521 1.55386 21.7052 1.5357 21.6613C1.51755 21.6175 1.49094 21.5776 1.45738 21.5441C1.42383 21.5105 1.38399 21.4839 1.34015 21.4658C1.2963 21.4476 1.24931 21.4383 1.20186 21.4383H0.650555C0.554759 21.4383 0.462885 21.4763 0.395147 21.5441C0.327408 21.6118 0.289353 21.7037 0.289353 21.7995V23.5107C0.289338 23.5582 0.29867 23.6052 0.316815 23.649C0.33496 23.6928 0.361564 23.7327 0.395106 23.7662C0.428648 23.7998 0.468472 23.8264 0.512303 23.8445C0.556133 23.8627 0.603112 23.872 0.650555 23.872H1.20209C1.29788 23.872 1.38972 23.8339 1.45743 23.7661C1.52514 23.6984 1.56318 23.6065 1.56318 23.5107V23.0031C2.04562 22.9952 2.43653 22.6029 2.43653 22.1188V20.9274H23.5636V22.1187C23.5636 22.6029 23.9545 22.9952 24.4369 23.0031V23.5108C24.437 23.6067 24.475 23.6985 24.5428 23.7663C24.6106 23.834 24.7024 23.872 24.7983 23.872H25.3498C25.4456 23.872 25.5375 23.8339 25.6052 23.7662C25.6729 23.6984 25.711 23.6065 25.711 23.5107V21.7995C25.711 21.7037 25.6729 21.6118 25.6052 21.5441C25.5375 21.4763 25.4456 21.4383 25.3498 21.4383H24.7983C24.7508 21.4383 24.7038 21.4476 24.66 21.4657C24.6162 21.4839 24.5763 21.5105 24.5428 21.544C24.5092 21.5776 24.4826 21.6174 24.4644 21.6612C24.4463 21.7051 24.4369 21.752 24.4369 21.7995V22.3098C24.3363 22.3017 24.254 22.2218 24.254 22.1187V20.9274H26.0001V19.8626H24.7971V18.6593L23.8846 18.6594ZM2.1154 19.2889H23.8846V19.8627H2.1154V19.2889ZM25.9697 18.1987V12.8368C25.9697 12.702 25.9432 12.5685 25.8916 12.4439C25.84 12.3193 25.7644 12.2061 25.6691 12.1108C25.5737 12.0154 25.4606 11.9398 25.336 11.8882C25.2114 11.8366 25.0779 11.8101 24.9431 11.8101H1.05701C0.922162 11.81 0.788633 11.8366 0.664045 11.8882C0.539457 11.9398 0.42625 12.0154 0.330888 12.1107C0.235527 12.2061 0.159877 12.3193 0.10826 12.4438C0.0566423 12.5684 0.0300673 12.7019 0.0300522 12.8368V18.1987H25.9697Z" fill="#35B6BD"/>
</svg>
