<svg width="50" height="50" viewBox="0 0 50 50" fill="none" xmlns="http://www.w3.org/2000/svg">
<g clip-path="url(#clip0_915_28648)">
<path d="M15.6479 41.2749C14.1354 38.5624 13.3355 35.2374 13.3355 31.6374C13.3355 25.5874 18.5729 20.6625 24.998 20.6625C31.4354 20.6625 36.6605 25.5875 36.6605 31.6374C36.6605 32.325 37.223 32.8875 37.9105 32.8875C38.598 32.8875 39.1605 32.325 39.1605 31.6374C39.1605 24.1999 32.8105 18.1624 24.9981 18.1624C17.1857 18.1624 10.8354 24.2124 10.8354 31.6374C10.8354 35.6625 11.7479 39.4249 13.4729 42.4999C15.1604 45.5124 16.3355 46.8999 18.4979 49.0873C18.7479 49.3373 19.0604 49.4623 19.3854 49.4623C19.6979 49.4623 20.0229 49.3498 20.2479 49.0873C20.7479 48.6124 20.7479 47.8123 20.2604 47.3248C18.3354 45.3875 17.2604 44.15 15.6479 41.2749ZM11.0979 6.02495C15.3854 3.68742 20.0604 2.49996 25.0229 2.49996C29.9979 2.49996 34.1604 3.5625 38.948 6.03749C39.1355 6.12503 39.323 6.17496 39.523 6.17496C39.973 6.17496 40.4105 5.92499 40.6355 5.49996C40.948 4.88742 40.7105 4.125 40.0979 3.81246C34.9979 1.17504 30.3479 0 25.0229 0C19.6479 0 14.5604 1.28754 9.8979 3.825C9.28536 4.1625 9.0729 4.9125 9.39786 5.52503C9.73536 6.13745 10.4854 6.35003 11.0979 6.02495Z" fill="#01AFD7"/>
<path d="M24.9104 12.075C16.8479 12.075 9.47299 16.5875 6.13549 23.5625C4.99796 25.925 4.42303 28.65 4.42303 31.65C4.42303 35.025 5.02303 38.25 6.24799 41.5374C6.49796 42.1875 7.21045 42.5124 7.86049 42.2749C8.51053 42.0249 8.83549 41.3124 8.59795 40.6624C7.11038 36.675 6.93542 33.6 6.93542 31.65C6.93542 29.025 7.42292 26.6625 8.39791 24.6375C11.3229 18.5124 17.8104 14.5625 24.9229 14.5625C34.9104 14.5625 43.0353 22.225 43.0353 31.65C43.0353 34.3374 40.6978 36.5124 37.8354 36.5124C34.973 36.5124 32.6354 34.3249 32.6354 31.65C32.6354 27.5874 29.1854 24.2874 24.9354 24.2874C20.6854 24.2874 17.2354 27.5874 17.2354 31.65C17.2354 36.5874 19.1604 41.225 22.6479 44.7C25.3479 47.3874 27.9479 48.8625 31.9354 49.95C32.0353 49.9875 32.1478 50 32.2603 50C32.8103 50 33.3103 49.6375 33.4603 49.0875C33.6478 48.425 33.2479 47.7375 32.5853 47.55C29.0603 46.5875 26.7602 45.2874 24.3977 42.9375C21.3852 39.9375 19.7228 35.925 19.7228 31.6625C19.7228 28.975 22.0603 26.8 24.9227 26.8C27.7852 26.8 30.1227 28.9876 30.1227 31.6625C30.1227 35.725 33.5852 39.025 37.8227 39.025C42.0602 39.025 45.5228 35.725 45.5228 31.6625C45.5229 20.8625 36.2729 12.075 24.9104 12.075Z" fill="#01AFD7"/>
<path d="M47.2728 17.25C44.7853 13.775 41.6353 11.0499 37.8978 9.12503C30.0229 5.07503 19.9729 5.08757 12.1104 9.14999C8.36041 11.0874 5.19787 13.8375 2.72287 17.3375C2.32291 17.9 2.46037 18.675 3.02287 19.0751C3.24787 19.2251 3.49783 19.3001 3.74791 19.3001C4.13545 19.3001 4.52287 19.1251 4.77295 18.7876C7.01041 15.6126 9.87294 13.1251 13.2605 11.3751C20.423 7.67519 29.5855 7.66265 36.7604 11.3502C40.1354 13.0752 42.9854 15.5502 45.2354 18.7002C45.6354 19.2627 46.4229 19.3877 46.9854 18.9876C47.5479 18.5874 47.6729 17.8125 47.2728 17.25ZM39.9104 42.0999C38.9105 42.2749 37.898 42.3375 37.298 42.3375C34.798 42.3375 32.723 41.75 30.9605 40.55C27.923 38.4875 26.1104 35.1625 26.1104 31.65C26.1104 30.9624 25.5479 30.3999 24.8604 30.3999C24.1729 30.3999 23.6104 30.9624 23.6104 31.65C23.6104 36 25.8354 40.1 29.5479 42.6249C31.7103 44.0874 34.3229 44.8374 37.2978 44.8374C37.6479 44.8374 38.8854 44.8249 40.3479 44.5624C41.0229 44.4373 41.4854 43.7874 41.3604 43.1124C41.2353 42.4374 40.5854 41.975 39.9104 42.0999Z" fill="#01AFD7"/>
</g>
<defs>
<clipPath id="clip0_915_28648">
<rect width="50" height="50" fill="white"/>
</clipPath>
</defs>
</svg>
