<svg width="20" height="20" viewBox="0 0 20 20" fill="none" xmlns="http://www.w3.org/2000/svg">
<path d="M17.4118 1.17645H15.6471V2.94116C15.6471 3.2941 15.353 3.52939 15.0588 3.52939C14.7647 3.52939 14.4706 3.2941 14.4706 2.94116V1.17645H5.05885V2.94116C5.05885 3.2941 4.76473 3.52939 4.47061 3.52939C4.17649 3.52939 3.88237 3.2941 3.88237 2.94116V1.17645H2.11767C1.23532 1.17645 0.588257 1.94116 0.588257 2.94116V5.05881H19.4118V2.94116C19.4118 1.94116 18.353 1.17645 17.4118 1.17645ZM0.588257 6.2941V17.0588C0.588257 18.1176 1.23532 18.8235 2.17649 18.8235H17.4706C18.4118 18.8235 19.4706 18.0588 19.4706 17.0588V6.2941H0.588257ZM5.82355 16.1765H4.41179C4.17649 16.1765 3.9412 16 3.9412 15.7059V14.2353C3.9412 14 4.11767 13.7647 4.41179 13.7647H5.88237C6.11767 13.7647 6.35296 13.9412 6.35296 14.2353V15.7059C6.29414 16 6.11767 16.1765 5.82355 16.1765ZM5.82355 10.8823H4.41179C4.17649 10.8823 3.9412 10.7059 3.9412 10.4117V8.94116C3.9412 8.70586 4.11767 8.47057 4.41179 8.47057H5.88237C6.11767 8.47057 6.35296 8.64704 6.35296 8.94116V10.4117C6.29414 10.7059 6.11767 10.8823 5.82355 10.8823ZM10.5294 16.1765H9.05885C8.82355 16.1765 8.58826 16 8.58826 15.7059V14.2353C8.58826 14 8.76473 13.7647 9.05885 13.7647H10.5294C10.7647 13.7647 11 13.9412 11 14.2353V15.7059C11 16 10.8236 16.1765 10.5294 16.1765ZM10.5294 10.8823H9.05885C8.82355 10.8823 8.58826 10.7059 8.58826 10.4117V8.94116C8.58826 8.70586 8.76473 8.47057 9.05885 8.47057H10.5294C10.7647 8.47057 11 8.64704 11 8.94116V10.4117C11 10.7059 10.8236 10.8823 10.5294 10.8823ZM15.2353 16.1765H13.7647C13.5294 16.1765 13.2941 16 13.2941 15.7059V14.2353C13.2941 14 13.4706 13.7647 13.7647 13.7647H15.2353C15.4706 13.7647 15.7059 13.9412 15.7059 14.2353V15.7059C15.7059 16 15.5294 16.1765 15.2353 16.1765ZM15.2353 10.8823H13.7647C13.5294 10.8823 13.2941 10.7059 13.2941 10.4117V8.94116C13.2941 8.70586 13.4706 8.47057 13.7647 8.47057H15.2353C15.4706 8.47057 15.7059 8.64704 15.7059 8.94116V10.4117C15.7059 10.7059 15.5294 10.8823 15.2353 10.8823Z" fill="#6B6B6B"/>
</svg>
