<svg width="30" height="30" viewBox="0 0 30 30" fill="none" xmlns="http://www.w3.org/2000/svg">
<path d="M29.1552 25.8619C24.5636 32.8472 14.9466 30.4377 7.25367 22.7464C-0.43926 15.055 -2.84715 5.43768 4.1381 0.84485C7.71598 -1.50746 9.14998 1.42969 10.3026 5.02337C10.6108 5.98456 10.6481 7.01209 10.4105 7.99311C10.1729 8.97414 9.66958 9.87072 8.95577 10.5844L8.28503 11.2551C8.28503 11.2551 7.63419 13.4129 12.1083 17.888C16.5824 22.363 18.7427 21.7153 18.7427 21.7153L19.4134 21.0443C20.1271 20.3304 21.0236 19.827 22.0047 19.5893C22.9857 19.3517 24.0132 19.389 24.9745 19.6971C28.5703 20.8478 31.5075 22.2841 29.1552 25.8619ZM19.907 2.38085C23.993 2.38558 27.304 5.69663 27.3091 9.7823C27.3091 10.0554 27.4176 10.3173 27.6107 10.5105C27.8038 10.7036 28.0658 10.8121 28.3389 10.8121C28.612 10.8121 28.8739 10.7036 29.067 10.5105C29.2602 10.3173 29.3687 10.0554 29.3687 9.7823C29.3611 4.55979 25.1292 0.328851 19.9073 0.321588C19.6342 0.321588 19.3723 0.430083 19.1791 0.623205C18.986 0.816328 18.8775 1.07826 18.8775 1.35137C18.8775 1.62449 18.986 1.88642 19.1791 2.07954C19.3723 2.27267 19.6342 2.38116 19.9073 2.38116L19.907 2.38085ZM19.907 7.87367C20.4132 7.87392 20.8986 8.07506 21.2567 8.43292C21.6147 8.79077 21.8161 9.27609 21.8166 9.7823C21.8166 10.0554 21.9251 10.3173 22.1182 10.5105C22.3113 10.7036 22.5732 10.8121 22.8464 10.8121C23.1195 10.8121 23.3814 10.7036 23.5745 10.5105C23.7677 10.3173 23.8761 10.0554 23.8761 9.7823C23.8736 7.59136 22.0979 5.81599 19.907 5.81378C19.6338 5.81378 19.3719 5.9223 19.1787 6.11545C18.9856 6.3086 18.8771 6.57057 18.8771 6.84373C18.8771 7.11689 18.9856 7.37886 19.1787 7.57201C19.3719 7.76516 19.6338 7.87367 19.907 7.87367Z" fill="#6F6F6F"/>
</svg>
