<svg width="26" height="26" viewBox="0 0 26 26" fill="none" xmlns="http://www.w3.org/2000/svg">
<g clip-path="url(#clip0_155_1062)">
<path d="M6.96432 10.5713C6.17447 10.9728 5.29638 11.1693 4.41075 11.1428C3.52512 11.1693 2.64703 10.9728 1.85718 10.5713V20.9276C2.08839 20.9044 2.32146 20.8928 2.55361 20.8928C3.43924 20.8664 4.31732 21.0629 5.10718 21.4644V18.1071C5.10718 17.3643 5.84261 16.7533 6.96432 16.4519V10.5713Z" fill="#35B6BD"/>
<path d="M2.55357 23.6787C3.96387 23.6787 5.10714 23.2629 5.10714 22.7501C5.10714 22.2373 3.96387 21.8215 2.55357 21.8215C1.14327 21.8215 0 22.2373 0 22.7501C0 23.2629 1.14327 23.6787 2.55357 23.6787Z" fill="#35B6BD"/>
<path d="M0 24.0355V25.0713C0 25.4428 1.01818 25.9999 2.55357 25.9999C4.08897 25.9999 5.10714 25.4428 5.10714 25.0713V24.0355C4.31729 24.437 3.43921 24.6335 2.55357 24.6071C1.66794 24.6335 0.789857 24.437 0 24.0355ZM13.7062 4.23885C14.0498 4.49653 14.4667 4.63721 14.8961 4.63953C14.4938 3.94862 14.1754 3.21216 13.9476 2.44578C13.9145 2.32714 13.93 2.20022 13.9905 2.09295C14.051 1.98568 14.1516 1.90684 14.2703 1.87378C14.3889 1.84072 14.5158 1.85614 14.6231 1.91665C14.7304 1.97717 14.8092 2.07782 14.8423 2.19646C15.1009 3.06874 15.4962 3.89445 16.0137 4.64278H16.491C17.0094 3.89526 17.4047 3.06951 17.6619 2.19692C17.6949 2.07822 17.7737 1.97749 17.881 1.91689C17.9882 1.85628 18.1152 1.84078 18.2339 1.87378C18.3526 1.90678 18.4533 1.98558 18.5139 2.09285C18.5745 2.20012 18.59 2.32708 18.557 2.44578C18.3295 3.2115 18.0114 3.94733 17.6094 4.63767C18.0303 4.63123 18.4382 4.49161 18.7748 4.23885C19.8617 3.38921 20.2429 2.03814 20.3682 1.05385C20.3805 0.971336 20.3682 0.88704 20.333 0.811432C20.2977 0.735824 20.241 0.672235 20.17 0.628565C20.0916 0.577461 20 0.550251 19.9065 0.550251C19.8129 0.550251 19.7214 0.577461 19.643 0.628565C19.318 0.832851 18.9401 0.936851 18.5561 0.928494C18.0183 0.93284 17.4994 0.730009 17.1071 0.362065C16.9935 0.24735 16.8582 0.156288 16.7092 0.0941426C16.5602 0.0319972 16.4003 0 16.2389 0C16.0774 0 15.9175 0.0319972 15.7685 0.0941426C15.6195 0.156288 15.4843 0.24735 15.3706 0.362065C14.9783 0.729734 14.4597 0.93253 13.9221 0.928494C13.5401 0.936918 13.164 0.833296 12.8403 0.630422C12.7612 0.580123 12.6693 0.553448 12.5756 0.55353C12.4818 0.553612 12.39 0.580449 12.311 0.630886C12.2402 0.674452 12.1838 0.737848 12.1487 0.813205C12.1136 0.888563 12.1014 0.972563 12.1137 1.05478C12.2404 2.03906 12.6202 3.38921 13.7062 4.23885Z" fill="#35B6BD"/>
<path d="M7.19639 3.71432C8.60669 3.71432 9.74997 3.29858 9.74997 2.78575C9.74997 2.27291 8.60669 1.85718 7.19639 1.85718C5.7861 1.85718 4.64282 2.27291 4.64282 2.78575C4.64282 3.29858 5.7861 3.71432 7.19639 3.71432Z" fill="#35B6BD"/>
<path d="M4.41075 10.2143C5.82105 10.2143 6.96432 9.79858 6.96432 9.28575C6.96432 8.77291 5.82105 8.35718 4.41075 8.35718C3.00045 8.35718 1.85718 8.77291 1.85718 9.28575C1.85718 9.79858 3.00045 10.2143 4.41075 10.2143Z" fill="#35B6BD"/>
<path d="M25.6364 14.9634C24.1256 8.55113 20.0919 5.92792 18.8648 5.26399C18.6388 5.37385 18.3996 5.45421 18.1531 5.5031L19.0153 6.30771C19.0599 6.34932 19.0958 6.39931 19.1211 6.45482C19.1464 6.51033 19.1605 6.57028 19.1626 6.63124C19.1647 6.69221 19.1548 6.75299 19.1334 6.81012C19.112 6.86724 19.0796 6.9196 19.038 6.96421C18.9964 7.00881 18.9464 7.04477 18.8909 7.07005C18.8354 7.09533 18.7754 7.10943 18.7145 7.11155C18.6535 7.11366 18.5927 7.10374 18.5356 7.08237C18.4785 7.06099 18.4261 7.02857 18.3815 6.98695L16.8651 5.57135H16.7166V6.96421C16.7166 7.08734 16.6677 7.20543 16.5806 7.2925C16.4935 7.37958 16.3754 7.42849 16.2523 7.42849C16.1292 7.42849 16.0111 7.37958 15.924 7.2925C15.8369 7.20543 15.788 7.08734 15.788 6.96421V5.57135H15.6394L14.1231 6.98695C14.033 7.07106 13.9132 7.11593 13.79 7.11171C13.6669 7.10749 13.5504 7.05451 13.4663 6.96444C13.3822 6.87436 13.3374 6.75457 13.3416 6.63141C13.3458 6.50825 13.3988 6.39181 13.4889 6.30771L14.3464 5.50774C14.0982 5.45947 13.8573 5.37942 13.6295 5.26956C12.4751 5.92002 11.4344 6.75411 10.5481 7.7391L10.5374 7.75117C10.1984 8.12153 9.87942 8.50976 9.58189 8.91421C9.50794 9.01042 9.39926 9.07386 9.27912 9.09094C9.15897 9.10802 9.03691 9.07738 8.93908 9.00559C8.84124 8.93379 8.77541 8.82654 8.75567 8.7068C8.73593 8.58706 8.76385 8.46436 8.83347 8.36495C9.12069 7.9744 9.42655 7.59789 9.74997 7.23674V4.07031C8.96019 4.4721 8.08211 4.66895 7.19639 4.64278C6.31076 4.66923 5.43268 4.4727 4.64282 4.07124V7.43453C6.51064 7.49442 7.89282 8.27024 7.89282 9.28563V16.2847C8.12404 16.2615 8.35711 16.2499 8.58925 16.2499C10.5741 16.2499 12.0714 17.0485 12.0714 18.1071V23.2142H20.5168C21.0019 23.2142 23.4961 23.1213 24.933 21.3106C26.0566 19.8899 26.2934 17.7547 25.6364 14.9634ZM18.5714 14.8571C18.5714 15.3496 18.3757 15.822 18.0275 16.1703C17.6792 16.5185 17.2068 16.7142 16.7143 16.7142V17.1785C16.7143 17.3016 16.6653 17.4197 16.5783 17.5068C16.4912 17.5939 16.3731 17.6428 16.25 17.6428C16.1268 17.6428 16.0087 17.5939 15.9217 17.5068C15.8346 17.4197 15.7857 17.3016 15.7857 17.1785V16.7142C15.2931 16.7142 14.8208 16.5185 14.4725 16.1703C14.1242 15.822 13.9285 15.3496 13.9285 14.8571C13.9285 14.7339 13.9775 14.6158 14.0645 14.5288C14.1516 14.4417 14.2697 14.3928 14.3928 14.3928C14.516 14.3928 14.6341 14.4417 14.7211 14.5288C14.8082 14.6158 14.8571 14.7339 14.8571 14.8571C14.8571 15.1033 14.9549 15.3395 15.1291 15.5137C15.3032 15.6878 15.5394 15.7856 15.7857 15.7856V13.9285C15.2931 13.9285 14.8208 13.7328 14.4725 13.3845C14.1242 13.0363 13.9285 12.5639 13.9285 12.0713C13.9285 11.5788 14.1242 11.1064 14.4725 10.7581C14.8208 10.4099 15.2931 10.2142 15.7857 10.2142V9.74992C15.7857 9.62678 15.8346 9.50869 15.9217 9.42162C16.0087 9.33455 16.1268 9.28563 16.25 9.28563C16.3731 9.28563 16.4912 9.33455 16.5783 9.42162C16.6653 9.50869 16.7143 9.62678 16.7143 9.74992V10.2142C17.2068 10.2142 17.6792 10.4099 18.0275 10.7581C18.3757 11.1064 18.5714 11.5788 18.5714 12.0713C18.5714 12.1945 18.5225 12.3126 18.4354 12.3996C18.3483 12.4867 18.2302 12.5356 18.1071 12.5356C17.984 12.5356 17.8659 12.4867 17.7788 12.3996C17.6917 12.3126 17.6428 12.1945 17.6428 12.0713C17.6428 11.8251 17.545 11.5889 17.3709 11.4147C17.1967 11.2406 16.9605 11.1428 16.7143 11.1428V12.9999C17.2068 12.9999 17.6792 13.1956 18.0275 13.5439C18.3757 13.8921 18.5714 14.3645 18.5714 14.8571ZM24.2055 20.7317C23.0336 22.2109 20.9272 22.2856 20.5168 22.2856C20.3936 22.2856 20.2755 22.2367 20.1885 22.1496C20.1014 22.0626 20.0525 21.9445 20.0525 21.8213C20.0525 21.6982 20.1014 21.5801 20.1885 21.493C20.2755 21.406 20.3936 21.3571 20.5168 21.3571C20.8524 21.3571 22.5712 21.299 23.477 20.155C23.9054 19.5498 24.1338 18.8258 24.1303 18.0843C24.1456 17.8294 24.3615 17.634 24.6164 17.6428C24.6773 17.6457 24.7371 17.6606 24.7922 17.6866C24.8474 17.7126 24.8969 17.7492 24.9379 17.7944C24.9789 17.8395 25.0106 17.8923 25.0312 17.9497C25.0518 18.0071 25.0609 18.068 25.0579 18.1289C25.054 19.0644 24.7558 19.975 24.2055 20.7317Z" fill="#35B6BD"/>
<path d="M14.8571 12.0714C14.8571 12.3177 14.9549 12.5539 15.129 12.728C15.3032 12.9021 15.5394 13 15.7856 13V11.1428C15.5394 11.1428 15.3032 11.2407 15.129 11.4148C14.9549 11.5889 14.8571 11.8251 14.8571 12.0714ZM16.7142 15.7857C16.9605 15.7857 17.1967 15.6878 17.3708 15.5137C17.545 15.3396 17.6428 15.1034 17.6428 14.8571C17.6428 14.6108 17.545 14.3747 17.3708 14.2005C17.1967 14.0264 16.9605 13.9285 16.7142 13.9285V15.7857ZM6.03564 19.3927V24.1428C6.03564 24.5143 7.05382 25.0714 8.58922 25.0714C10.1246 25.0714 11.1428 24.5143 11.1428 24.1428V19.3927C10.3529 19.7942 9.47485 19.9907 8.58922 19.9643C7.70358 19.9907 6.8255 19.7942 6.03564 19.3927Z" fill="#35B6BD"/>
<path d="M8.58922 19.0356C9.99952 19.0356 11.1428 18.6199 11.1428 18.107C11.1428 17.5942 9.99952 17.1785 8.58922 17.1785C7.17892 17.1785 6.03564 17.5942 6.03564 18.107C6.03564 18.6199 7.17892 19.0356 8.58922 19.0356Z" fill="#35B6BD"/>
<path d="M22.1465 3.25C22.1465 4.01143 21.3201 4.63357 20.2894 4.64286C20.1161 4.6432 19.9432 4.62452 19.774 4.58714C19.7493 4.61829 19.7195 4.64498 19.6858 4.66607C19.7601 4.7125 19.8436 4.76357 19.9319 4.81464C20.2151 5.00036 20.5447 5.22786 20.9069 5.51107C20.944 5.53893 20.9765 5.56679 21.0136 5.59929C23.3258 5.77107 24.0594 6.73679 24.0826 6.76464C24.1257 6.82679 24.1833 6.87747 24.2505 6.91226C24.3177 6.94706 24.3923 6.96492 24.4679 6.96429C24.5592 6.96536 24.6485 6.93776 24.7233 6.88536C24.8251 6.81728 24.8958 6.71176 24.9202 6.59176C24.9445 6.47176 24.9205 6.347 24.8533 6.24464C24.8161 6.18893 24.1754 5.26964 22.3044 4.84714C22.5404 4.65224 22.7315 4.40859 22.8645 4.13291C22.9975 3.85723 23.0694 3.55605 23.0751 3.25C23.0441 2.74758 22.8556 2.2677 22.5364 1.87848C22.2172 1.48926 21.7835 1.21051 21.2969 1.08179C21.2961 1.11293 21.293 1.14396 21.2876 1.17464C21.2518 1.45786 21.1994 1.73829 21.1297 2.015C21.4038 2.09466 21.6474 2.25515 21.8288 2.47548C22.0102 2.69582 22.1209 2.96575 22.1465 3.25Z" fill="#35B6BD"/>
</g>
<defs>
<clipPath id="clip0_155_1062">
<rect width="26" height="26" fill="white"/>
</clipPath>
</defs>
</svg>
