<svg width="26" height="26" viewBox="0 0 26 26" fill="none" xmlns="http://www.w3.org/2000/svg">
<path d="M22.1965 3.80348C17.1241 -1.26783 8.87502 -1.26783 3.80264 3.80348C-1.26755 8.87479 -1.26755 17.126 3.80264 22.1974C6.33883 24.7325 9.66946 25.9995 13.0001 25.9995C16.3308 25.9995 19.6603 24.7324 22.1965 22.1974C27.2678 17.1261 27.2678 8.87479 22.1965 3.80348ZM18.364 16.8323C18.7878 17.2561 18.7878 17.9411 18.364 18.3649C18.2635 18.4657 18.1441 18.5456 18.0126 18.6001C17.8811 18.6546 17.7401 18.6826 17.5977 18.6825C17.4554 18.6826 17.3144 18.6546 17.1829 18.6001C17.0514 18.5456 16.932 18.4657 16.8315 18.3649L13.0001 14.5324L9.16979 18.3638C8.96653 18.567 8.69092 18.6812 8.4035 18.6813C8.26115 18.6815 8.12018 18.6535 7.98868 18.599C7.85718 18.5445 7.73774 18.4645 7.63721 18.3638C7.21344 17.94 7.21344 17.2539 7.63721 16.8312L11.4675 12.9999L7.63614 9.1685C7.21237 8.74473 7.21237 8.05866 7.63614 7.63596C8.05884 7.2122 8.74491 7.2122 9.16867 7.63596L13 11.4673L16.8314 7.63596C17.2552 7.2122 17.9402 7.2122 18.3639 7.63596C18.7877 8.05866 18.7877 8.74473 18.3639 9.1685L14.5326 12.9999L18.364 16.8323Z" fill="#8A8A8A"/>
</svg>
