<svg width="26" height="26" viewBox="0 0 26 26" fill="none" xmlns="http://www.w3.org/2000/svg">
<g clip-path="url(#clip0_155_1081)">
<path d="M24.8262 15.6111C23.5473 15.1482 22.1275 15.2551 20.9308 15.9044C20.9152 15.9122 16.245 18.0228 16.245 18.0228C15.9132 18.2713 15.5284 18.4026 15.1321 18.4026H12.1937C11.8287 18.4026 11.5328 18.107 11.5328 17.7424C11.5328 17.3779 11.8287 17.0823 12.1937 17.0823H15.1321C16.0506 17.0823 16.0707 15.1926 15.171 15.1177L11.0756 15.0707C10.3529 15.0627 9.62965 14.5982 8.86787 14.5807C8.09254 14.563 7.35904 14.7607 6.70721 15.1835C5.79954 15.7722 5.17987 16.7078 4.76454 17.6887L6.98032 23.2842H13.3515C13.9275 23.2839 14.4934 23.1335 14.9935 22.8477L24.881 17.1914C25.1817 16.9365 25.4139 16.6388 25.3119 16.1817C25.2544 15.9247 25.07 15.6994 24.8262 15.6111ZM0.663818 18.3743L3.68349 26L6.10732 24.6691L3.0876 17.0435L0.663818 18.3743ZM18.8602 0C15.6182 0 12.99 2.66372 12.99 5.94956C12.99 9.23539 15.6182 11.8991 18.8602 11.8991C22.1021 11.8991 24.7303 9.23539 24.7303 5.94956C24.7303 2.66372 22.1022 0 18.8602 0ZM19.5272 8.91939V9.90567H18.1689V8.99961C17.6441 8.92161 17.1777 8.71278 16.7749 8.39622L17.262 7.03006C17.657 7.34044 18.2215 7.62406 18.7068 7.62406C19.079 7.62406 19.3196 7.45322 19.3196 7.18878C19.3196 7.01689 19.2643 6.81094 18.6044 6.542C17.7784 6.21606 16.9328 5.73794 16.9328 4.66706C16.9328 3.85856 17.427 3.209 18.229 2.95289V1.99339H19.5789V2.86783C19.9897 2.93194 20.429 3.13222 20.7904 3.36539L20.2841 4.71C19.9202 4.46728 19.404 4.23172 18.9899 4.23172C18.5372 4.23172 18.4883 4.46372 18.4883 4.56344C18.4883 4.71961 18.5466 4.85439 19.3004 5.168C20.0375 5.47039 20.8835 5.96644 20.8835 7.12828C20.8835 7.95833 20.3542 8.65256 19.5272 8.91939Z" fill="#35B6BD"/>
</g>
<defs>
<clipPath id="clip0_155_1081">
<rect width="26" height="26" fill="white"/>
</clipPath>
</defs>
</svg>
