<svg width="20" height="14" viewBox="0 0 20 14" fill="none" xmlns="http://www.w3.org/2000/svg">
<path d="M10.0001 10.0807C11.7006 10.0807 13.0791 8.70221 13.0791 7.00171C13.0791 5.3012 11.7006 3.92267 10.0001 3.92267C8.29955 3.92267 6.92102 5.3012 6.92102 7.00171C6.92102 8.70221 8.29955 10.0807 10.0001 10.0807Z" fill="#4B4D4F"/>
<path d="M19.6932 6.14882C17.3265 3.28878 13.7438 0.535736 10 0.535736C6.25555 0.535736 2.67205 3.2907 0.306845 6.14882C-0.102282 6.64301 -0.102282 7.36042 0.306845 7.85461C0.901484 8.57318 2.14811 9.96028 3.8131 11.1723C8.00632 14.2248 11.9845 14.2316 16.187 11.1723C17.852 9.96028 19.0986 8.57318 19.6932 7.85461C20.1012 7.36138 20.1033 6.64462 19.6932 6.14882ZM10 2.69106C12.3771 2.69106 14.3107 4.6247 14.3107 7.00171C14.3107 9.37873 12.3771 11.3124 10 11.3124C7.62302 11.3124 5.68939 9.37873 5.68939 7.00171C5.68939 4.6247 7.62302 2.69106 10 2.69106Z" fill="#4B4D4F"/>
</svg>
