<svg width="50" height="50" viewBox="0 0 50 50" fill="none" xmlns="http://www.w3.org/2000/svg">
<path fill-rule="evenodd" clip-rule="evenodd" d="M5.25637 17.8205V13.0342C5.25543 12.0125 5.45596 11.0007 5.84649 10.0567C6.23703 9.11258 6.8099 8.25479 7.53232 7.53237C8.25474 6.80995 9.11253 6.23708 10.0566 5.84654C11.0007 5.456 12.0125 5.25547 13.0341 5.25642H17.8205C18.2965 5.25642 18.753 5.06731 19.0896 4.73071C19.4262 4.39411 19.6153 3.93757 19.6153 3.46154C19.6153 2.98551 19.4262 2.52898 19.0896 2.19238C18.753 1.85577 18.2965 1.66667 17.8205 1.66667H13.0341C10.0193 1.66667 7.12792 2.86432 4.9961 4.99614C2.86427 7.12797 1.66663 10.0193 1.66663 13.0342V17.8205C1.66663 18.2965 1.85573 18.7531 2.19233 19.0897C2.52894 19.4263 2.98547 19.6154 3.4615 19.6154C3.93753 19.6154 4.39406 19.4263 4.73066 19.0897C5.06727 18.7531 5.25637 18.2965 5.25637 17.8205ZM32.1794 5.25642H36.9658C37.9874 5.25547 38.9992 5.456 39.9433 5.84654C40.8874 6.23708 41.7452 6.80995 42.4676 7.53237C43.19 8.25479 43.7629 9.11258 44.1534 10.0567C44.544 11.0007 44.7445 12.0125 44.7435 13.0342V17.8205C44.7435 18.2965 44.9327 18.7531 45.2693 19.0897C45.6059 19.4263 46.0624 19.6154 46.5384 19.6154C47.0145 19.6154 47.471 19.4263 47.8076 19.0897C48.1442 18.7531 48.3333 18.2965 48.3333 17.8205V13.0342C48.3333 10.0193 47.1356 7.12797 45.0038 4.99614C42.872 2.86432 39.9806 1.66667 36.9658 1.66667H32.1794C31.7034 1.66667 31.2469 1.85577 30.9103 2.19238C30.5737 2.52898 30.3846 2.98551 30.3846 3.46154C30.3846 3.93757 30.5737 4.39411 30.9103 4.73071C31.2469 5.06731 31.7034 5.25642 32.1794 5.25642ZM1.66663 32.1795V36.9658C1.66663 39.9807 2.86427 42.872 4.9961 45.0039C7.12792 47.1357 10.0193 48.3333 13.0341 48.3333H17.8205C18.2965 48.3333 18.753 48.1442 19.0896 47.8076C19.4262 47.471 19.6153 47.0145 19.6153 46.5385C19.6153 46.0624 19.4262 45.6059 19.0896 45.2693C18.753 44.9327 18.2965 44.7436 17.8205 44.7436H13.0341C12.0125 44.7445 11.0007 44.544 10.0566 44.1535C9.11253 43.7629 8.25474 43.1901 7.53232 42.4676C6.8099 41.7452 6.23703 40.8874 5.84649 39.9434C5.45596 38.9993 5.25543 37.9875 5.25637 36.9658V32.1795C5.25637 31.7035 5.06727 31.2469 4.73066 30.9103C4.39406 30.5737 3.93753 30.3846 3.4615 30.3846C2.98547 30.3846 2.52894 30.5737 2.19233 30.9103C1.85573 31.2469 1.66663 31.7035 1.66663 32.1795ZM32.1794 48.3333H36.9658C39.9806 48.3333 42.872 47.1357 45.0038 45.0039C47.1356 42.872 48.3333 39.9807 48.3333 36.9658V32.1795C48.3333 31.7035 48.1442 31.2469 47.8076 30.9103C47.471 30.5737 47.0145 30.3846 46.5384 30.3846C46.0624 30.3846 45.6059 30.5737 45.2693 30.9103C44.9327 31.2469 44.7435 31.7035 44.7435 32.1795V36.9658C44.7445 37.9875 44.544 38.9993 44.1534 39.9434C43.7629 40.8874 43.19 41.7452 42.4676 42.4676C41.7452 43.1901 40.8874 43.7629 39.9433 44.1535C38.9992 44.544 37.9874 44.7445 36.9658 44.7436H32.1794C31.7034 44.7436 31.2469 44.9327 30.9103 45.2693C30.5737 45.6059 30.3846 46.0624 30.3846 46.5385C30.3846 47.0145 30.5737 47.471 30.9103 47.8076C31.2469 48.1442 31.7034 48.3333 32.1794 48.3333ZM31.5812 16.6239V19.0171C31.5812 19.4931 31.7703 19.9497 32.1069 20.2863C32.4435 20.6229 32.9 20.812 33.376 20.812C33.8521 20.812 34.3086 20.6229 34.6452 20.2863C34.9818 19.9497 35.1709 19.4931 35.1709 19.0171V16.6239C35.1709 16.1479 34.9818 15.6914 34.6452 15.3548C34.3086 15.0182 33.8521 14.8291 33.376 14.8291C32.9 14.8291 32.4435 15.0182 32.1069 15.3548C31.7703 15.6914 31.5812 16.1479 31.5812 16.6239ZM14.829 16.6239V19.0171C14.829 19.4931 15.0181 19.9497 15.3547 20.2863C15.6913 20.6229 16.1479 20.812 16.6239 20.812C17.0999 20.812 17.5565 20.6229 17.8931 20.2863C18.2297 19.9497 18.4188 19.4931 18.4188 19.0171V16.6239C18.4188 16.1479 18.2297 15.6914 17.8931 15.3548C17.5565 15.0182 17.0999 14.8291 16.6239 14.8291C16.1479 14.8291 15.6913 15.0182 15.3547 15.3548C15.0181 15.6914 14.829 16.1479 14.829 16.6239ZM24.4017 26.2827V20.2137C24.4017 19.7377 24.5908 19.2811 24.9274 18.9445C25.264 18.6079 25.7205 18.4188 26.1965 18.4188C26.6726 18.4188 27.1291 18.6079 27.4657 18.9445C27.8023 19.2811 27.9914 19.7377 27.9914 20.2137V27.3932C27.9914 27.7267 27.8985 28.0536 27.723 28.3372C27.5476 28.6209 27.2966 28.85 26.9983 28.999L24.6051 30.1956C24.394 30.303 24.1637 30.3676 23.9275 30.3856C23.6913 30.4037 23.4539 30.3748 23.2289 30.3006C23.0039 30.2264 22.7959 30.1085 22.6167 29.9535C22.4376 29.7985 22.2908 29.6097 22.185 29.3977C22.0792 29.1858 22.0164 28.955 22.0002 28.7187C21.984 28.4823 22.0148 28.2452 22.0907 28.0208C22.1666 27.7964 22.2862 27.5892 22.4425 27.4113C22.5989 27.2333 22.7889 27.0881 23.0017 26.9839L24.4017 26.2827ZM32.1077 32.1077C32.4479 31.7907 32.8979 31.618 33.3629 31.6263C33.8279 31.6345 34.2716 31.8228 34.6004 32.1517C34.9293 32.4805 35.1176 32.9242 35.1258 33.3892C35.1341 33.8542 34.9615 34.3042 34.6444 34.6445C34.3189 34.9699 34.6444 34.6468 34.642 34.6492C32.0847 37.2064 28.6164 38.643 25 38.643C21.3835 38.643 17.9152 37.2064 15.3579 34.6492L15.3555 34.6445C15.0385 34.3042 14.8659 33.8542 14.8741 33.3892C14.8823 32.9242 15.0706 32.4805 15.3995 32.1517C15.7283 31.8228 16.172 31.6345 16.637 31.6263C17.102 31.618 17.552 31.7907 17.8923 32.1077C18.2177 32.4332 17.8947 32.1077 17.8971 32.1101C19.7811 33.9935 22.336 35.0516 25 35.0516C27.6639 35.0516 30.2189 33.9935 32.1029 32.1101L32.1077 32.1077Z" fill="#01AFD7"/>
</svg>
