<svg width="20" height="20" viewBox="0 0 20 20" fill="none" xmlns="http://www.w3.org/2000/svg">
<g clip-path="url(#clip0_155_1543)">
<path d="M17.9235 1H2.07648C1.67418 1.00032 1.28063 1.1174 0.943573 1.33703C0.60652 1.55667 0.340463 1.86941 0.177693 2.23731C0.0149234 2.60521 -0.0375617 3.01245 0.026608 3.40959C0.0907778 3.80674 0.268844 4.17672 0.539194 4.47464L7.40698 12.0277V19.1511C7.40704 19.2904 7.44634 19.4268 7.52038 19.5447C7.59442 19.6626 7.70019 19.7573 7.82557 19.8179C7.92578 19.8673 8.03612 19.8927 8.14785 19.892C8.31623 19.8918 8.47954 19.8344 8.61088 19.729L10 18.6177L12.3152 16.7655C12.4018 16.6962 12.4718 16.6082 12.5199 16.5082C12.5679 16.4082 12.5929 16.2986 12.593 16.1877V12.0277L19.4608 4.47464C19.7312 4.17672 19.9092 3.80674 19.9734 3.40959C20.0376 3.01245 19.9851 2.60521 19.8223 2.23731C19.6595 1.86941 19.3935 1.55667 19.0564 1.33703C18.7194 1.1174 18.3258 1.00032 17.9235 1Z" fill="#4B4D4F"/>
</g>
<defs>
<clipPath id="clip0_155_1543">
<rect width="20" height="20" fill="white"/>
</clipPath>
</defs>
</svg>
