<svg width="20" height="20" viewBox="0 0 20 20" fill="none" xmlns="http://www.w3.org/2000/svg">
<path d="M10.1136 7.89132C10.4437 7.89132 10.7583 7.96032 11.0443 8.08445C11.0658 7.61776 11.2266 7.18619 11.4847 6.82893C11.3002 6.79028 11.1122 6.77079 10.9237 6.77075H9.10555C8.91406 6.77075 8.72665 6.79076 8.54639 6.82832C8.83127 7.22158 8.98583 7.69419 8.98837 8.17978C9.33306 7.99011 9.7202 7.89087 10.1136 7.89132Z" fill="#6B6B6B"/>
<path d="M10.0143 6.62459C11.1977 6.62459 12.1571 5.66525 12.1571 4.48185C12.1571 3.29845 11.1977 2.33911 10.0143 2.33911C8.83092 2.33911 7.87158 3.29845 7.87158 4.48185C7.87158 5.66525 8.83092 6.62459 10.0143 6.62459Z" fill="#6B6B6B"/>
<path d="M13.3797 10.2809C13.9033 10.2809 14.4054 10.0729 14.7756 9.7027C15.1459 9.33248 15.3538 8.83036 15.3538 8.30679C15.3539 8.04753 15.3029 7.7908 15.2037 7.55127C15.1045 7.31173 14.9591 7.09409 14.7758 6.91076C14.5924 6.72744 14.3748 6.58203 14.1353 6.48284C13.8957 6.38365 13.639 6.33262 13.3797 6.33268C12.2994 6.33268 11.4234 7.20051 11.407 8.27698C12.0295 8.66732 12.466 9.32753 12.5456 10.0939C12.8065 10.2169 13.0913 10.2807 13.3797 10.2809ZM6.64937 6.33247C5.5586 6.33247 4.67505 7.21623 4.67505 8.30659C4.67505 9.39694 5.5586 10.2805 6.64937 10.2805C7.02112 10.2804 7.3852 10.1748 7.6993 9.97591C7.79498 9.35811 8.12365 8.80042 8.61776 8.41744C8.61981 8.38049 8.62328 8.34394 8.62328 8.30659C8.62328 7.21623 7.73931 6.33247 6.64937 6.33247ZM14.662 6.29042C15.2844 6.68075 15.7209 7.34096 15.8003 8.10754C16.0612 8.23043 16.346 8.29428 16.6345 8.29454C16.8937 8.29457 17.1504 8.24352 17.39 8.14433C17.6295 8.04513 17.8471 7.89971 18.0304 7.7164C18.2138 7.53308 18.3592 7.31544 18.4584 7.07592C18.5576 6.8364 18.6086 6.57968 18.6086 6.32043C18.6086 6.06118 18.5576 5.80446 18.4584 5.56493C18.3592 5.32541 18.2138 5.10778 18.0304 4.92446C17.8471 4.74114 17.6295 4.59573 17.39 4.49653C17.1504 4.39733 16.8937 4.34629 16.6345 4.34631C15.5543 4.34611 14.6783 5.21415 14.662 6.29042Z" fill="#6B6B6B"/>
<path d="M10.1137 12.3191C11.2041 12.3191 12.088 11.4352 12.088 10.3448C12.088 9.25442 11.2041 8.37048 10.1137 8.37048C9.02334 8.37048 8.1394 9.25442 8.1394 10.3448C8.1394 11.4352 9.02334 12.3191 10.1137 12.3191Z" fill="#6B6B6B"/>
<path d="M14.2176 10.4154H12.555C12.5381 11.0573 12.2681 11.6664 11.804 12.11C13.0427 12.4787 13.9494 13.6277 13.9494 14.9849V15.6161C15.5907 15.5555 16.5367 15.0908 16.599 15.059L16.7309 14.992H16.7445V12.9432C16.745 11.5492 15.6111 10.4154 14.2176 10.4154Z" fill="#6B6B6B"/>
<path d="M17.472 8.42908H15.8098C15.793 9.0709 15.5231 9.68004 15.059 10.1237C16.2977 10.4924 17.2042 11.6411 17.2042 12.9983V13.6295C18.8453 13.5691 19.7915 13.1045 19.8538 13.0724L19.9857 13.0057H19.9998V10.9568C19.9998 9.56312 18.8659 8.42908 17.472 8.42908ZM8.42231 12.1099C7.96079 11.6684 7.69121 11.0632 7.67166 10.4248C7.61021 10.4203 7.54917 10.4152 7.48629 10.4152H5.81166C4.41774 10.4152 3.28369 11.5493 3.28369 12.9432V14.9922L3.2888 15.0239L3.42986 15.0684C4.49695 15.4018 5.4495 15.5549 6.27651 15.6035V14.9847C6.27691 13.6277 7.18313 12.4788 8.42231 12.1099Z" fill="#6B6B6B"/>
<path d="M10.9511 12.4536H9.27589C7.88196 12.4536 6.74792 13.5881 6.74792 14.9814V17.0304L6.75323 17.0625L6.89409 17.1066C8.22432 17.522 9.38 17.6608 10.3309 17.6608C12.1889 17.6608 13.2656 17.131 13.3321 17.0974L13.464 17.0304H13.4779V14.9814C13.4785 13.5876 12.3446 12.4536 10.9511 12.4536ZM3.36559 8.35737C3.654 8.35709 3.93881 8.29324 4.19974 8.17037C4.27936 7.40379 4.71562 6.74337 5.33807 6.35304C5.32174 5.27697 4.44574 4.40894 3.36559 4.40894C3.10631 4.40891 2.84957 4.45996 2.61002 4.55917C2.37047 4.65838 2.15281 4.8038 1.96948 4.98714C1.78614 5.17048 1.64071 5.38814 1.5415 5.62768C1.44229 5.86723 1.39124 6.12397 1.39127 6.38325C1.39127 6.64252 1.44234 6.89924 1.54156 7.13876C1.64078 7.37829 1.78621 7.59592 1.96955 7.77924C2.15288 7.96255 2.37053 8.10796 2.61006 8.20716C2.8496 8.30635 3.10633 8.35739 3.36559 8.35737ZM4.9408 10.1867C4.47679 9.74286 4.20698 9.13361 4.19014 8.4917H2.52776C1.13384 8.4919 0 9.62595 0 11.0197V13.0687H0.0140862L0.145966 13.1355C0.208435 13.1669 1.15425 13.6322 2.79561 13.6924V13.0611C2.79561 11.7042 3.70182 10.5552 4.9408 10.1867Z" fill="#6B6B6B"/>
<path d="M5.67451 6.13734C5.91132 6.04139 6.27267 5.92359 6.61768 5.92359C7.01924 5.92359 7.41202 6.02689 7.76234 6.22349C7.84055 6.14653 7.91224 6.06323 7.97669 5.97443C7.64319 5.53643 7.46248 5.00118 7.46224 4.45066C7.46224 4.07952 7.54512 3.71124 7.70313 3.37664C7.34563 3.05203 6.87967 2.87282 6.39679 2.87423C5.96704 2.87464 5.54939 3.01659 5.20839 3.27814C4.8674 3.53969 4.62204 3.90628 4.51025 4.32123C5.17333 4.70707 5.60531 5.38158 5.67451 6.13734ZM12.0686 5.86276C12.1382 5.97291 12.2185 6.07584 12.3085 6.17C12.6313 6.00847 12.9871 5.92406 13.348 5.92339C13.701 5.92339 14.0393 6.01362 14.261 6.08916C14.2959 5.6854 14.4345 5.29751 14.6634 4.96308C14.8924 4.62866 15.2038 4.35904 15.5675 4.18037C15.4337 3.79865 15.1846 3.46789 14.8547 3.23378C14.5249 2.99967 14.1304 2.87375 13.7259 2.87341C13.4604 2.87325 13.1977 2.92735 12.9539 3.03239C12.7101 3.13743 12.4903 3.29118 12.3081 3.48422C12.4375 3.7929 12.5031 4.11729 12.5031 4.44985C12.5042 4.95387 12.3528 5.44644 12.0686 5.86276Z" fill="#6B6B6B"/>
</svg>
