<svg width="30" height="30" viewBox="0 0 30 30" fill="none" xmlns="http://www.w3.org/2000/svg">
<g clip-path="url(#clip0_705_5059)">
<path d="M29.1911 13.0485L29.1891 13.0465L16.9515 0.809355C16.4298 0.287402 15.7363 0 14.9987 0C14.261 0 13.5675 0.287227 13.0456 0.809121L0.814353 13.04C0.810251 13.0441 0.80615 13.0485 0.802048 13.0526C-0.269163 14.1299 -0.267288 15.8779 0.807322 16.9525C1.29822 17.4437 1.94668 17.7282 2.63996 17.7579C2.66808 17.7607 2.6965 17.7621 2.7251 17.7621H3.21283V26.7679C3.21283 28.55 4.66279 30 6.44533 30H11.233C11.7183 30 12.1119 29.6065 12.1119 29.1211V22.0605C12.1119 21.2473 12.7735 20.5859 13.5867 20.5859H16.4106C17.2239 20.5859 17.8853 21.2474 17.8853 22.0605V29.1211C17.8853 29.6065 18.2787 30 18.7642 30H23.552C25.3345 30 26.7845 28.55 26.7845 26.768V17.7621H27.2367C27.9742 17.7621 28.6677 17.4749 29.1898 16.953C30.2656 15.8766 30.266 14.1257 29.1911 13.0485Z" fill="#35B6BD"/>
</g>
<defs>
<clipPath id="clip0_705_5059">
<rect width="30" height="30" fill="white"/>
</clipPath>
</defs>
</svg>
