<svg width="26" height="26" viewBox="0 0 26 26" fill="none" xmlns="http://www.w3.org/2000/svg">
<path d="M20.3419 15.0584C20.5892 15.6293 20.733 16.3278 20.7648 17.1355C21.5994 17.3268 22.224 18.0733 22.224 18.9648C22.224 20.0002 21.3816 20.8426 20.3462 20.8426C19.3108 20.8426 18.4684 20.0002 18.4684 18.9648C18.4684 18.0834 19.0794 17.3447 19.8993 17.1428C19.8632 16.3405 19.6714 15.12 18.8862 14.5173C18.481 14.4115 18.0678 14.3388 17.6509 14.2998C17.6197 15.7052 12.9743 19.1736 12.9743 19.1736C12.9743 19.1736 8.32756 15.7058 8.29607 14.3004C7.83357 14.3426 7.3759 14.4271 6.92876 14.5526C6.35589 15.0061 6.05949 15.8511 6.04418 17.0795C6.21521 17.1792 6.35084 17.3297 6.43216 17.5102C7.04922 17.8017 7.59436 18.4147 8.0118 19.2875C8.08171 19.4342 8.09096 19.6 8.03954 19.7514C8.28971 20.3954 8.43271 21.0991 8.43271 21.6902C8.43271 22.5184 8.43271 23.3016 7.52994 23.5026C7.43205 23.5842 7.30864 23.6288 7.18125 23.6286H6.57805C6.43267 23.6284 6.29331 23.5705 6.19048 23.4678C6.08766 23.365 6.02975 23.2257 6.02945 23.0803L6.03003 23.0589C6.03632 22.9175 6.09671 22.7839 6.19871 22.6858C6.30071 22.5877 6.43651 22.5325 6.57805 22.5317H7.18125C7.24272 22.5317 7.30376 22.5421 7.3618 22.5623C7.37879 22.5587 7.39508 22.5523 7.41005 22.5435C7.47707 22.4245 7.47707 21.9288 7.47707 21.6907C7.47707 21.2106 7.35689 20.6308 7.14629 20.092C7.03681 20.03 6.94892 19.9359 6.89438 19.8225C6.52865 19.0566 6.03118 18.5621 5.62731 18.5621C5.2142 18.5621 4.69189 19.0971 4.3276 19.8921C4.26729 20.0221 4.16419 20.1274 4.03554 20.1905C3.84516 20.7059 3.74058 21.2366 3.74058 21.6904C3.74058 21.8904 3.74058 22.4208 3.81685 22.5456C3.81771 22.5456 3.83476 22.556 3.88271 22.5678C3.94511 22.5438 4.01214 22.5314 4.07916 22.5314H4.68351C4.81933 22.5316 4.95026 22.5821 5.051 22.6731C5.15174 22.7642 5.21514 22.8894 5.22894 23.0245L5.23183 23.0583C5.23183 23.3822 4.98569 23.6289 4.68351 23.6289H4.07916C3.95927 23.6289 3.84343 23.5887 3.74809 23.5159C3.40287 23.4509 3.15963 23.2987 3.00565 23.0508C2.81903 22.7512 2.78494 22.3578 2.78494 21.6904C2.78494 21.1052 2.92014 20.4309 3.16569 19.787C3.12925 19.6498 3.14203 19.5043 3.2018 19.3756C3.45747 18.8163 3.78276 18.3373 4.14214 17.9909C4.3288 17.8083 4.54188 17.6548 4.77423 17.5356C4.85596 17.344 4.99782 17.1842 5.17838 17.0804C5.18763 16.3105 5.30607 15.6457 5.52505 15.0977C3.01807 16.3694 1.30005 18.9703 1.30005 21.9738C1.30005 25.812 4.10429 25.9998 7.7752 25.9998C8.17589 25.9998 8.58611 25.9975 9.00529 25.9975H16.9402C17.3588 25.9975 17.769 25.9998 18.1697 25.9998C21.8412 25.9998 24.6466 25.812 24.6466 21.9738C24.6463 18.9385 22.8916 16.3148 20.3419 15.0584Z" fill="#35B6BD"/>
<path d="M12.9754 15.3088C16.5241 15.3088 19.4006 9.97274 19.4006 6.42431C19.4006 2.87647 16.5241 0 12.9754 0C9.42725 0 6.55078 2.87647 6.55078 6.42431C6.55078 9.97274 9.42725 15.3088 12.9754 15.3088Z" fill="#35B6BD"/>
<path d="M20.3459 19.8315C20.8246 19.8315 21.2126 19.4435 21.2126 18.9648C21.2126 18.4862 20.8246 18.0981 20.3459 18.0981C19.8673 18.0981 19.4792 18.4862 19.4792 18.9648C19.4792 19.4435 19.8673 19.8315 20.3459 19.8315Z" fill="#35B6BD"/>
</svg>
