<svg width="26" height="26" viewBox="0 0 26 26" fill="none" xmlns="http://www.w3.org/2000/svg">
<g clip-path="url(#clip0_155_1086)">
<path d="M6.5 0.7215V10.79L11.7837 12.4613C11.9731 12.5208 12.1385 12.6394 12.2555 12.7999C12.3725 12.9603 12.435 13.1541 12.4337 13.3526V16.7139H16.7139C16.96 16.7146 17.1959 16.8126 17.3699 16.9867C17.5439 17.1607 17.642 17.3965 17.6426 17.6426V26H19.5V0.7215C19.5 0.530147 19.424 0.34663 19.2887 0.211323C19.1534 0.0760154 18.9699 4.5753e-07 18.7785 4.5753e-07H7.22231C7.1275 -0.000106319 7.03359 0.018477 6.94596 0.054688C6.85833 0.090899 6.77869 0.144027 6.71161 0.211035C6.64453 0.278044 6.59131 0.357617 6.555 0.445207C6.51869 0.532796 6.5 0.626683 6.5 0.7215ZM11.1426 11.1426H9.28688C9.16266 11.1463 9.03897 11.125 8.92314 11.08C8.8073 11.035 8.70167 10.9672 8.61251 10.8807C8.52335 10.7941 8.45247 10.6905 8.40407 10.5761C8.35566 10.4616 8.33072 10.3386 8.33072 10.2143C8.33072 10.0901 8.35566 9.96707 8.40407 9.85262C8.45247 9.73816 8.52335 9.63459 8.61251 9.54802C8.70167 9.46146 8.8073 9.39367 8.92314 9.34868C9.03897 9.30368 9.16266 9.28239 9.28688 9.28606H11.1434C11.2677 9.28239 11.3913 9.30368 11.5072 9.34868C11.623 9.39367 11.7286 9.46146 11.8178 9.54802C11.907 9.63459 11.9778 9.73816 12.0262 9.85262C12.0747 9.96707 12.0996 10.0901 12.0996 10.2143C12.0996 10.3386 12.0747 10.4616 12.0262 10.5761C11.9778 10.6905 11.907 10.7941 11.8178 10.8807C11.7286 10.9672 11.623 11.035 11.5072 11.08C11.3913 11.125 11.2677 11.1463 11.1434 11.1426H11.1426ZM11.1426 7.42869H9.28688C9.04057 7.42869 8.80436 7.33084 8.63019 7.15668C8.45603 6.98252 8.35819 6.7463 8.35819 6.5C8.35819 6.2537 8.45603 6.01748 8.63019 5.84332C8.80436 5.66916 9.04057 5.57131 9.28688 5.57131H11.1434C11.3897 5.57131 11.626 5.66916 11.8001 5.84332C11.9743 6.01748 12.0721 6.2537 12.0721 6.5C12.0721 6.7463 11.9743 6.98252 11.8001 7.15668C11.626 7.33084 11.3897 7.42869 11.1434 7.42869H11.1426ZM11.1426 3.71394H9.28688C9.16266 3.71761 9.03897 3.69632 8.92314 3.65132C8.8073 3.60633 8.70167 3.53854 8.61251 3.45198C8.52335 3.36542 8.45247 3.26184 8.40407 3.14739C8.35566 3.03293 8.33072 2.90993 8.33072 2.78566C8.33072 2.66139 8.35566 2.53838 8.40407 2.42393C8.45247 2.30947 8.52335 2.2059 8.61251 2.11934C8.70167 2.03277 8.8073 1.96499 8.92314 1.91999C9.03897 1.87499 9.16266 1.8537 9.28688 1.85738H11.1434C11.2677 1.8537 11.3913 1.87499 11.5072 1.91999C11.623 1.96499 11.7286 2.03277 11.8178 2.11934C11.907 2.2059 11.9778 2.30947 12.0262 2.42393C12.0747 2.53838 12.0996 2.66139 12.0996 2.78566C12.0996 2.90993 12.0747 3.03293 12.0262 3.14739C11.9778 3.26184 11.907 3.36542 11.8178 3.45198C11.7286 3.53854 11.623 3.60633 11.5072 3.65132C11.3913 3.69632 11.2677 3.71761 11.1434 3.71394H11.1426ZM16.7139 14.8574H14.8574C14.6111 14.8574 14.3749 14.7595 14.2007 14.5854C14.0265 14.4112 13.9287 14.175 13.9287 13.9287C13.9287 13.6824 14.0265 13.4462 14.2007 13.272C14.3749 13.0978 14.6111 13 14.8574 13H16.7148C16.9611 13 17.1973 13.0978 17.3714 13.272C17.5456 13.4462 17.6434 13.6824 17.6434 13.9287C17.6434 14.175 17.5456 14.4112 17.3714 14.5854C17.1973 14.7595 16.9611 14.8574 16.7148 14.8574H16.7139ZM16.7139 11.1426H14.8574C14.6159 11.1355 14.3868 11.0345 14.2185 10.8612C14.0503 10.6879 13.9562 10.4559 13.9562 10.2143C13.9562 9.9728 14.0503 9.74075 14.2185 9.56745C14.3868 9.39414 14.6159 9.29321 14.8574 9.28606H16.7148C16.839 9.28239 16.9627 9.30368 17.0785 9.34868C17.1943 9.39367 17.3 9.46146 17.3891 9.54802C17.4783 9.63459 17.5492 9.73816 17.5976 9.85262C17.646 9.96707 17.6709 10.0901 17.6709 10.2143C17.6709 10.3386 17.646 10.4616 17.5976 10.5761C17.5492 10.6905 17.4783 10.7941 17.3891 10.8807C17.3 10.9672 17.1943 11.035 17.0785 11.08C16.9627 11.125 16.839 11.1463 16.7148 11.1426H16.7139ZM16.7139 7.42869H14.8574C14.6111 7.42869 14.3749 7.33084 14.2007 7.15668C14.0265 6.98252 13.9287 6.7463 13.9287 6.5C13.9287 6.2537 14.0265 6.01748 14.2007 5.84332C14.3749 5.66916 14.6111 5.57131 14.8574 5.57131H16.7148C16.8367 5.57131 16.9575 5.59533 17.0701 5.642C17.1828 5.68868 17.2852 5.75708 17.3714 5.84332C17.4577 5.92956 17.5261 6.03193 17.5727 6.14461C17.6194 6.25728 17.6434 6.37804 17.6434 6.5C17.6434 6.62196 17.6194 6.74272 17.5727 6.85539C17.5261 6.96807 17.4577 7.07045 17.3714 7.15668C17.2852 7.24292 17.1828 7.31133 17.0701 7.358C16.9575 7.40467 16.8367 7.42869 16.7148 7.42869H16.7139ZM16.7139 3.71394H14.8574C14.6159 3.70679 14.3868 3.60586 14.2185 3.43255C14.0503 3.25925 13.9562 3.0272 13.9562 2.78566C13.9562 2.54411 14.0503 2.31207 14.2185 2.13876C14.3868 1.96545 14.6159 1.86452 14.8574 1.85738H16.7148C16.839 1.8537 16.9627 1.87499 17.0785 1.91999C17.1943 1.96499 17.3 2.03277 17.3891 2.11934C17.4783 2.2059 17.5492 2.30947 17.5976 2.42393C17.646 2.53838 17.6709 2.66139 17.6709 2.78566C17.6709 2.90993 17.646 3.03293 17.5976 3.14739C17.5492 3.26184 17.4783 3.36542 17.3891 3.45198C17.3 3.53854 17.1943 3.60633 17.0785 3.65132C16.9627 3.69632 16.839 3.71761 16.7148 3.71394H16.7139Z" fill="#35B6BD"/>
<path d="M5.2927 12.359L7.65556e-05 14.0319V20.7082C-0.0260312 21.4624 0.13327 22.2115 0.464014 22.8898C1.62508 25.1924 4.55008 25.8513 5.2927 25.9919C6.03614 25.8521 8.95139 25.1932 10.1125 22.8808C10.4414 22.2149 10.6007 21.4781 10.5764 20.7358V14.0319L5.2927 12.359ZM9.18377 17.5224L5.56245 21.1331C5.47769 21.2213 5.376 21.2915 5.26347 21.3394C5.15093 21.3873 5.02989 21.412 4.90758 21.412C4.78527 21.412 4.66422 21.3873 4.55169 21.3394C4.43916 21.2915 4.33746 21.2213 4.2527 21.1331L2.33195 19.2213C2.24589 19.1355 2.17762 19.0334 2.13104 18.9211C2.08445 18.8088 2.06047 18.6884 2.06047 18.5669C2.06047 18.4453 2.08445 18.3249 2.13104 18.2126C2.17762 18.1003 2.24589 17.9983 2.33195 17.9124C2.50728 17.7384 2.74428 17.6407 2.9913 17.6407C3.23831 17.6407 3.47531 17.7384 3.65064 17.9124L4.91326 19.1661L7.86589 16.2126C8.04122 16.0386 8.27822 15.941 8.52523 15.941C8.77225 15.941 9.00925 16.0386 9.18458 16.2126C9.27076 16.2985 9.33914 16.4006 9.38579 16.513C9.43245 16.6254 9.45646 16.7458 9.45646 16.8675C9.45646 16.9892 9.43245 17.1097 9.38579 17.2221C9.33914 17.3344 9.26995 17.4365 9.18377 17.5224ZM10.2148 26V25.7067C10.8577 25.1514 11.3862 24.4761 11.7708 23.7185C12.2378 22.7864 12.4659 21.7528 12.4346 20.7106V18.5713H15.7861V26H10.2148ZM21.3575 8.15021V26H26.0001V8.15021C26.0001 7.95886 25.9241 7.77534 25.7888 7.64003C25.6535 7.50473 25.4699 7.42871 25.2786 7.42871H22.079C21.8876 7.42871 21.7041 7.50473 21.5688 7.64003C21.4335 7.77534 21.3575 7.95886 21.3575 8.15021ZM24.1427 23.214H23.214C22.9726 23.2068 22.7434 23.1059 22.5752 22.9326C22.4069 22.7593 22.3128 22.5272 22.3128 22.2857C22.3128 22.0441 22.4069 21.8121 22.5752 21.6388C22.7434 21.4655 22.9726 21.3645 23.214 21.3574H24.1427C24.2669 21.3537 24.3906 21.375 24.5064 21.42C24.6223 21.465 24.7279 21.5328 24.8171 21.6194C24.9062 21.7059 24.9771 21.8095 25.0255 21.924C25.0739 22.0384 25.0989 22.1614 25.0989 22.2857C25.0989 22.4099 25.0739 22.533 25.0255 22.6474C24.9771 22.7619 24.9062 22.8654 24.8171 22.952C24.7279 23.0386 24.6223 23.1063 24.5064 23.1513C24.3906 23.1963 24.2669 23.2176 24.1427 23.214ZM24.1427 19.5H23.214C22.9677 19.5 22.7315 19.4022 22.5573 19.228C22.3832 19.0539 22.2853 18.8176 22.2853 18.5713C22.2853 18.325 22.3832 18.0888 22.5573 17.9147C22.7315 17.7405 22.9677 17.6426 23.214 17.6426H24.1427C24.389 17.6426 24.6252 17.7405 24.7994 17.9147C24.9735 18.0888 25.0714 18.325 25.0714 18.5713C25.0714 18.8176 24.9735 19.0539 24.7994 19.228C24.6252 19.4022 24.389 19.5 24.1427 19.5ZM24.1427 15.7861H23.214C22.9677 15.7861 22.7315 15.6882 22.5573 15.5141C22.3832 15.3399 22.2853 15.1037 22.2853 14.8574C22.2853 14.6111 22.3832 14.3749 22.5573 14.2007C22.7315 14.0266 22.9677 13.9287 23.214 13.9287H24.1427C24.2647 13.9287 24.3854 13.9527 24.4981 13.9994C24.6108 14.0461 24.7131 14.1145 24.7994 14.2007C24.8856 14.287 24.954 14.3893 25.0007 14.502C25.0474 14.6147 25.0714 14.7354 25.0714 14.8574C25.0714 14.9794 25.0474 15.1001 25.0007 15.2128C24.954 15.3255 24.8856 15.4278 24.7994 15.5141C24.7131 15.6003 24.6108 15.6687 24.4981 15.7154C24.3854 15.7621 24.2647 15.7861 24.1427 15.7861ZM24.1427 12.0713H23.214C22.9677 12.0713 22.7315 11.9735 22.5573 11.7993C22.3832 11.6252 22.2853 11.389 22.2853 11.1426C22.2853 10.8963 22.3832 10.6601 22.5573 10.486C22.7315 10.3118 22.9677 10.214 23.214 10.214H24.1427C24.2647 10.214 24.3854 10.238 24.4981 10.2847C24.6108 10.3313 24.7131 10.3997 24.7994 10.486C24.8856 10.5722 24.954 10.6746 25.0007 10.7873C25.0474 10.8999 25.0714 11.0207 25.0714 11.1426C25.0714 11.2646 25.0474 11.3854 25.0007 11.498C24.954 11.6107 24.8856 11.7131 24.7994 11.7993C24.7131 11.8856 24.6108 11.954 24.4981 12.0006C24.3854 12.0473 24.2647 12.0713 24.1427 12.0713Z" fill="#35B6BD"/>
</g>
<defs>
<clipPath id="clip0_155_1086">
<rect width="26" height="26" fill="white"/>
</clipPath>
</defs>
</svg>
