<svg width="20" height="20" viewBox="0 0 20 20" fill="none" xmlns="http://www.w3.org/2000/svg">
<g clip-path="url(#clip0_155_1026)">
<path fill-rule="evenodd" clip-rule="evenodd" d="M0 2.53846C0 2.13044 0.15051 1.73912 0.418419 1.45061C0.686328 1.16209 1.04969 1 1.42857 1H18.5714C18.9503 1 19.3137 1.16209 19.5816 1.45061C19.8495 1.73912 20 2.13044 20 2.53846C20 2.94649 19.8495 3.3378 19.5816 3.62632C19.3137 3.91483 18.9503 4.07692 18.5714 4.07692H1.42857C1.04969 4.07692 0.686328 3.91483 0.418419 3.62632C0.15051 3.3378 0 2.94649 0 2.53846ZM0 10.2308C0 9.82274 0.15051 9.43143 0.418419 9.14291C0.686328 8.85439 1.04969 8.69231 1.42857 8.69231H18.5714C18.9503 8.69231 19.3137 8.85439 19.5816 9.14291C19.8495 9.43143 20 9.82274 20 10.2308C20 10.6388 19.8495 11.0301 19.5816 11.3186C19.3137 11.6071 18.9503 11.7692 18.5714 11.7692H1.42857C1.04969 11.7692 0.686328 11.6071 0.418419 11.3186C0.15051 11.0301 0 10.6388 0 10.2308ZM0 17.9231C0 17.515 0.15051 17.1237 0.418419 16.8352C0.686328 16.5467 1.04969 16.3846 1.42857 16.3846H10C10.3789 16.3846 10.7422 16.5467 11.0102 16.8352C11.2781 17.1237 11.4286 17.515 11.4286 17.9231C11.4286 18.3311 11.2781 18.7224 11.0102 19.0109C10.7422 19.2994 10.3789 19.4615 10 19.4615H1.42857C1.04969 19.4615 0.686328 19.2994 0.418419 19.0109C0.15051 18.7224 0 18.3311 0 17.9231Z" fill="#4B4D4F"/>
</g>
<defs>
<clipPath id="clip0_155_1026">
<rect width="20" height="20" fill="white"/>
</clipPath>
</defs>
</svg>
