<svg width="16" height="16" viewBox="0 0 16 16" fill="none" xmlns="http://www.w3.org/2000/svg">
<path d="M7.9999 3.87304C8.94666 3.87304 9.71416 3.13395 9.71416 2.22224C9.71416 1.31053 8.94666 0.571442 7.9999 0.571442C7.05314 0.571442 6.28564 1.31053 6.28564 2.22224C6.28564 3.13395 7.05314 3.87304 7.9999 3.87304Z" fill="#00313C"/>
<path d="M7.9999 9.65082C8.94666 9.65082 9.71416 8.91173 9.71416 8.00001C9.71416 7.0883 8.94666 6.34921 7.9999 6.34921C7.05314 6.34921 6.28564 7.0883 6.28564 8.00001C6.28564 8.91173 7.05314 9.65082 7.9999 9.65082Z" fill="#00313C"/>
<path d="M7.9999 15.4286C8.94666 15.4286 9.71416 14.6895 9.71416 13.7778C9.71416 12.8661 8.94666 12.127 7.9999 12.127C7.05314 12.127 6.28564 12.8661 6.28564 13.7778C6.28564 14.6895 7.05314 15.4286 7.9999 15.4286Z" fill="#00313C"/>
</svg>
