<svg width="14" height="14" viewBox="0 0 14 14" fill="none" xmlns="http://www.w3.org/2000/svg">
<g clip-path="url(#clip0_155_2204)">
<path fill-rule="evenodd" clip-rule="evenodd" d="M3.09298 0.976562H2.44183C1.79421 0.976563 1.17313 1.23383 0.715195 1.69176C0.257263 2.14969 0 2.77078 0 3.41839V11.2322C0 11.8798 0.257263 12.5009 0.715195 12.9589C1.17313 13.4168 1.79421 13.6741 2.44183 13.6741H7.57032C7.45808 13.4541 7.39256 13.2132 7.37788 12.9667C7.3632 12.7202 7.39968 12.4733 7.48501 12.2415C7.79042 11.4116 8.37611 10.7145 9.1409 10.2705C8.6836 9.78844 8.42776 9.14989 8.42571 8.48545C8.42367 7.82101 8.67557 7.18089 9.12989 6.69604C9.58421 6.21119 10.2066 5.91825 10.8698 5.87715C11.533 5.83604 12.1868 6.04987 12.6975 6.47491V3.41839C12.6975 2.77078 12.4402 2.14969 11.9823 1.69176C11.5244 1.23383 10.9033 0.976562 10.2557 0.976562H9.60452V2.44166C9.60452 2.57118 9.55307 2.6954 9.46148 2.78699C9.36989 2.87857 9.24568 2.93002 9.11615 2.93002C8.98663 2.93002 8.86242 2.87857 8.77083 2.78699C8.67924 2.6954 8.62779 2.57118 8.62779 2.44166V0.976562H4.06971V2.44166C4.06971 2.57118 4.01826 2.6954 3.92667 2.78699C3.83509 2.87857 3.71087 2.93002 3.58135 2.93002C3.45182 2.93002 3.32761 2.87857 3.23602 2.78699C3.14443 2.6954 3.09298 2.57118 3.09298 2.44166V0.976562ZM3.09298 8.79041H6.34875C6.47827 8.79041 6.60249 8.73896 6.69408 8.64737C6.78566 8.55578 6.83712 8.43157 6.83712 8.30204C6.83712 8.17252 6.78566 8.0483 6.69408 7.95672C6.60249 7.86513 6.47827 7.81368 6.34875 7.81368H3.09298C2.96346 7.81368 2.83924 7.86513 2.74765 7.95672C2.65607 8.0483 2.60462 8.17252 2.60462 8.30204C2.60462 8.43157 2.65607 8.55578 2.74765 8.64737C2.83924 8.73896 2.96346 8.79041 3.09298 8.79041ZM3.09298 6.18579H5.11156C5.24108 6.18579 5.3653 6.13434 5.45688 6.04275C5.54847 5.95117 5.59992 5.82695 5.59992 5.69743C5.59992 5.56791 5.54847 5.44369 5.45688 5.3521C5.3653 5.26052 5.24108 5.20906 5.11156 5.20906H3.09298C2.96346 5.20906 2.83924 5.26052 2.74765 5.3521C2.65607 5.44369 2.60462 5.56791 2.60462 5.69743C2.60462 5.82695 2.65607 5.95117 2.74765 6.04275C2.83924 6.13434 2.96346 6.18579 3.09298 6.18579Z" fill="#35B6BD"/>
<path d="M11.0177 10.4183C12.0965 10.4183 12.9711 9.54368 12.9711 8.46481C12.9711 7.38595 12.0965 6.51135 11.0177 6.51135C9.9388 6.51135 9.06421 7.38595 9.06421 8.46481C9.06421 9.54368 9.9388 10.4183 11.0177 10.4183Z" fill="#35B6BD"/>
<path fill-rule="evenodd" clip-rule="evenodd" d="M9.16609 13.9997L12.8731 13.9912C13.055 13.9905 13.234 13.946 13.395 13.8614C13.5559 13.7767 13.6942 13.6546 13.7979 13.5052C13.9016 13.3558 13.9677 13.1836 13.9907 13.0032C14.0137 12.8227 13.9929 12.6395 13.9299 12.4688C13.7148 11.8686 13.3196 11.3495 12.7983 10.9825C12.2769 10.6154 11.6549 10.4184 11.0173 10.4183C10.3793 10.4197 9.75715 10.6167 9.23477 10.983C8.71238 11.3492 8.31498 11.8669 8.09624 12.4662C8.03276 12.6385 8.01186 12.8236 8.03531 13.0057C8.05876 13.1878 8.12588 13.3616 8.23094 13.5122C8.336 13.6628 8.4759 13.7857 8.63872 13.8706C8.80154 13.9555 8.98247 13.9998 9.16609 13.9997ZM3.09277 0.976609H4.0695V0.488243C4.0695 0.358721 4.01805 0.234503 3.92647 0.142917C3.83488 0.0513306 3.71066 -0.00012207 3.58114 -0.00012207C3.45162 -0.00012207 3.3274 0.0513306 3.23581 0.142917C3.14423 0.234503 3.09277 0.358721 3.09277 0.488243V0.976609ZM8.62758 0.976609H9.60431V0.488243C9.60431 0.358721 9.55286 0.234503 9.46127 0.142917C9.36969 0.0513306 9.24547 -0.00012207 9.11595 -0.00012207C8.98642 -0.00012207 8.86221 0.0513306 8.77062 0.142917C8.67903 0.234503 8.62758 0.358721 8.62758 0.488243V0.976609Z" fill="#35B6BD"/>
</g>
<defs>
<clipPath id="clip0_155_2204">
<rect width="14" height="14" fill="white"/>
</clipPath>
</defs>
</svg>
