<svg width="28" height="30" viewBox="0 0 28 30" fill="none" xmlns="http://www.w3.org/2000/svg">
<path d="M13.0014 29.9992C14.0814 29.9977 15.1279 29.624 15.9644 28.9409C16.801 28.2578 17.3765 27.3071 17.5939 26.2492H8.40885C8.62624 27.3071 9.20171 28.2578 10.0383 28.9409C10.8748 29.624 11.9213 29.9977 13.0014 29.9992ZM21.7664 14.998L21.7514 14.9992C16.9276 14.9992 13.0014 11.0742 13.0014 6.2492C13.0014 4.92295 13.3064 3.6692 13.8376 2.5417C12.6238 2.42516 11.3991 2.56361 10.2419 2.94816C9.08476 3.3327 8.02076 3.95486 7.11816 4.77473C6.21555 5.59459 5.49427 6.59406 5.00058 7.70903C4.50689 8.82399 4.25169 10.0298 4.25135 11.2492V14.7342C4.25183 15.9567 3.98489 17.1644 3.46924 18.2728C2.95359 19.3812 2.20172 20.3634 1.26635 21.1505C0.95022 21.4206 0.717643 21.7753 0.595879 22.1729C0.474115 22.5705 0.468208 22.9946 0.57885 23.3955C0.84385 24.3742 1.81135 24.9992 2.82635 24.9992H23.1701C24.2351 24.9992 25.2389 24.3092 25.4551 23.2655C25.5376 22.8746 25.5117 22.4687 25.3801 22.0915C25.2486 21.7143 25.0165 21.3803 24.7089 21.1255C22.8914 19.6017 21.8401 17.363 21.7664 14.998Z" fill="#35B6BD"/>
<path d="M21.5 13C25.0899 13 28 10.0899 28 6.5C28 2.91015 25.0899 0 21.5 0C17.9101 0 15 2.91015 15 6.5C15 10.0899 17.9101 13 21.5 13Z" fill="#F11F1F"/>
<path d="M20.7077 10V5.08803H19.5477V4.04003H21.9477V10H20.7077Z" fill="white"/>
</svg>
