<svg width="26" height="26" viewBox="0 0 26 26" fill="none" xmlns="http://www.w3.org/2000/svg">
<path fill-rule="evenodd" clip-rule="evenodd" d="M6.50008 2.97925H5.41675C4.33931 2.97925 3.30599 3.40726 2.54413 4.16913C1.78226 4.93099 1.35425 5.96431 1.35425 7.04175V20.0417C1.35425 21.1192 1.78226 22.1525 2.54413 22.9144C3.30599 23.6762 4.33931 24.1042 5.41675 24.1042H13.9491C13.7624 23.7382 13.6534 23.3376 13.6289 22.9274C13.6045 22.5173 13.6652 22.1065 13.8072 21.7209C14.3153 20.3402 15.2897 19.1803 16.5621 18.4417C15.8013 17.6397 15.3756 16.5773 15.3722 15.4719C15.3688 14.3664 15.7879 13.3015 16.5438 12.4948C17.2996 11.6882 18.3351 11.2008 19.4385 11.1324C20.5418 11.064 21.6296 11.4198 22.4792 12.1269V7.04175C22.4792 5.96431 22.0512 4.93099 21.2894 4.16913C20.5275 3.40726 19.4942 2.97925 18.4167 2.97925H17.3334V5.41675C17.3334 5.63224 17.2478 5.8389 17.0954 5.99127C16.9431 6.14365 16.7364 6.22925 16.5209 6.22925C16.3054 6.22925 16.0988 6.14365 15.9464 5.99127C15.794 5.8389 15.7084 5.63224 15.7084 5.41675V2.97925H8.12508V5.41675C8.12508 5.63224 8.03948 5.8389 7.88711 5.99127C7.73473 6.14365 7.52807 6.22925 7.31258 6.22925C7.09709 6.22925 6.89043 6.14365 6.73806 5.99127C6.58568 5.8389 6.50008 5.63224 6.50008 5.41675V2.97925ZM6.50008 15.9792H11.9167C12.1322 15.9792 12.3389 15.8936 12.4913 15.7413C12.6436 15.5889 12.7292 15.3822 12.7292 15.1667C12.7292 14.9513 12.6436 14.7446 12.4913 14.5922C12.3389 14.4399 12.1322 14.3542 11.9167 14.3542H6.50008C6.28459 14.3542 6.07793 14.4399 5.92556 14.5922C5.77318 14.7446 5.68758 14.9513 5.68758 15.1667C5.68758 15.3822 5.77318 15.5889 5.92556 15.7413C6.07793 15.8936 6.28459 15.9792 6.50008 15.9792ZM6.50008 11.6459H9.85842C10.0739 11.6459 10.2806 11.5603 10.4329 11.4079C10.5853 11.2556 10.6709 11.0489 10.6709 10.8334C10.6709 10.6179 10.5853 10.4113 10.4329 10.2589C10.2806 10.1065 10.0739 10.0209 9.85842 10.0209H6.50008C6.28459 10.0209 6.07793 10.1065 5.92556 10.2589C5.77318 10.4113 5.68758 10.6179 5.68758 10.8334C5.68758 11.0489 5.77318 11.2556 5.92556 11.4079C6.07793 11.5603 6.28459 11.6459 6.50008 11.6459Z" fill="#35B6BD"/>
<path d="M19.6843 18.6875C21.4793 18.6875 22.9343 17.2324 22.9343 15.4375C22.9343 13.6426 21.4793 12.1875 19.6843 12.1875C17.8894 12.1875 16.4343 13.6426 16.4343 15.4375C16.4343 17.2324 17.8894 18.6875 19.6843 18.6875Z" fill="#35B6BD"/>
<path fill-rule="evenodd" clip-rule="evenodd" d="M16.6042 24.6459L22.7717 24.6318C23.0742 24.6307 23.3721 24.5566 23.6399 24.4158C23.9077 24.275 24.1377 24.0717 24.3102 23.8232C24.4827 23.5746 24.5928 23.2881 24.6311 22.988C24.6693 22.6878 24.6346 22.3829 24.5299 22.099C24.1721 21.1004 23.5145 20.2367 22.6471 19.6261C21.7798 19.0155 20.7449 18.6877 19.6842 18.6876C18.6228 18.6898 17.5876 19.0177 16.7185 19.627C15.8494 20.2363 15.1883 21.0976 14.8243 22.0947C14.7187 22.3813 14.6839 22.6893 14.723 22.9922C14.762 23.2952 14.8736 23.5843 15.0484 23.8348C15.2232 24.0854 15.456 24.29 15.7269 24.4312C15.9978 24.5724 16.2988 24.6461 16.6042 24.6459ZM6.5 2.97925H8.125V2.16675C8.125 1.95126 8.0394 1.7446 7.88702 1.59222C7.73465 1.43985 7.52799 1.35425 7.3125 1.35425C7.09701 1.35425 6.89035 1.43985 6.73798 1.59222C6.5856 1.7446 6.5 1.95126 6.5 2.16675V2.97925ZM15.7083 2.97925H17.3333V2.16675C17.3333 1.95126 17.2477 1.7446 17.0954 1.59222C16.943 1.43985 16.7363 1.35425 16.5208 1.35425C16.3053 1.35425 16.0987 1.43985 15.9463 1.59222C15.7939 1.7446 15.7083 1.95126 15.7083 2.16675V2.97925Z" fill="#35B6BD"/>
</svg>
