<svg width="20" height="20" viewBox="0 0 20 20" fill="none" xmlns="http://www.w3.org/2000/svg">
<path d="M12.9096 10.5859C12.6373 11.9215 11.4148 12.9297 10.0001 12.9297C8.58542 12.9297 7.40194 11.9215 7.12972 10.5859H5.95776C6.24515 12.5684 7.93937 14.1016 10.0001 14.1016C12.0609 14.1016 13.7941 12.5684 14.0815 10.5859H12.9096Z" fill="#6B6B6B"/>
<path d="M15.2533 10.5859C14.9575 13.2154 12.7073 15.2734 10 15.2734C7.2927 15.2734 5.0816 13.2154 4.78578 10.5859H0V11.1719C0 11.4242 0.161953 11.6485 0.401133 11.728L2.81199 12.5148C2.91328 12.8021 3.02027 13.0636 3.13473 13.305L2.02234 15.5401C1.96769 15.65 1.94895 15.7743 1.96876 15.8955C1.98858 16.0166 2.04595 16.1285 2.13277 16.2153L3.78473 17.8672C3.96383 18.0463 4.23504 18.0887 4.45992 17.9777L6.69496 16.8653C6.93645 16.9797 7.19793 17.0867 7.48516 17.188L8.27195 19.5989C8.31085 19.7156 8.38549 19.8172 8.48531 19.8892C8.58513 19.9612 8.70506 19.9999 8.82812 20H11.2109C11.4633 20 11.6876 19.838 11.7671 19.5989L12.5539 17.188C12.8412 17.0867 13.1027 16.9797 13.3441 16.8653L15.5791 17.9777C15.804 18.0892 16.0758 18.0463 16.2543 17.8672L17.9063 16.2153C17.9931 16.1285 18.0505 16.0166 18.0703 15.8955C18.0901 15.7743 18.0714 15.65 18.0167 15.5401L16.9043 13.305C17.0188 13.0636 17.1258 12.8021 17.2271 12.5148L19.5989 11.728C19.7156 11.6891 19.8172 11.6145 19.8892 11.5147C19.9612 11.4149 19.9999 11.2949 20 11.1719V10.5859H15.2533Z" fill="#6B6B6B"/>
<path d="M8.35012 10.5859C8.59281 11.2665 9.23711 11.7578 10 11.7578C10.7629 11.7578 11.4462 11.2665 11.6889 10.5859H8.35012ZM10 0C8.70738 0 7.65625 1.05113 7.65625 2.34375C7.65625 3.63637 8.70738 4.6875 10 4.6875C11.2926 4.6875 12.3828 3.63637 12.3828 2.34375C12.3828 1.05113 11.2926 0 10 0ZM15.8984 0C14.6058 0 13.5547 1.05113 13.5547 2.34375C13.5547 3.63637 14.6058 4.6875 15.8984 4.6875C17.1911 4.6875 18.2422 3.63637 18.2422 2.34375C18.2422 1.05113 17.1911 0 15.8984 0ZM4.14062 0C2.84801 0 1.79688 1.05113 1.79688 2.34375C1.79688 3.63637 2.84801 4.6875 4.14062 4.6875C5.43324 4.6875 6.48438 3.63637 6.48438 2.34375C6.48438 1.05113 5.43324 0 4.14062 0ZM17.8971 5.2298C17.3288 5.62469 16.6414 5.85938 15.8984 5.85938C15.1585 5.85938 14.4734 5.62719 13.9064 5.23531C13.6494 5.38285 13.4024 5.54875 13.1788 5.74879C14.3182 6.60059 15.1094 7.9309 15.2767 9.41406H20V8.82812C20 7.29598 19.1453 5.93391 17.8971 5.2298ZM10 5.85938C7.93719 5.85938 6.22516 7.4291 5.9402 9.41406H14.0988C13.8139 7.4291 12.0628 5.85938 10 5.85938ZM6.1327 5.23531C5.5657 5.62719 4.88055 5.85938 4.14062 5.85938C3.39762 5.85938 2.71031 5.62469 2.14199 5.2298C0.893789 5.93391 0 7.29598 0 8.82812V9.41406H4.76234C4.92969 7.9309 5.72082 6.60059 6.86031 5.74879C6.63664 5.54875 6.38969 5.38285 6.1327 5.23531Z" fill="#6B6B6B"/>
</svg>
