<svg width="14" height="14" viewBox="0 0 14 14" fill="none" xmlns="http://www.w3.org/2000/svg">
<path fill-rule="evenodd" clip-rule="evenodd" d="M6.5625 0.4375C5.83909 0.4375 5.25 1.02659 5.25 1.75V3.5H6.125V1.96875C6.125 1.60891 6.42141 1.3125 6.78125 1.3125H12.0312C12.3911 1.3125 12.6875 1.60891 12.6875 1.96875V11.5938C12.6875 11.9536 12.3911 12.25 12.0312 12.25H6.78125C6.42141 12.25 6.125 11.9536 6.125 11.5938V10.5H5.25V12.25C5.25 12.9734 5.83909 13.5625 6.5625 13.5625H12.25C12.9734 13.5625 13.5625 12.9734 13.5625 12.25V1.75C13.5625 1.02659 12.9734 0.4375 12.25 0.4375H6.5625ZM8.3125 12.6875H10.5C10.558 12.6875 10.6137 12.7105 10.6547 12.7516C10.6957 12.7926 10.7188 12.8482 10.7188 12.9062C10.7188 12.9643 10.6957 13.0199 10.6547 13.0609C10.6137 13.102 10.558 13.125 10.5 13.125H8.3125C8.25448 13.125 8.19884 13.102 8.15782 13.0609C8.1168 13.0199 8.09375 12.9643 8.09375 12.9062C8.09375 12.8482 8.1168 12.7926 8.15782 12.7516C8.19884 12.7105 8.25448 12.6875 8.3125 12.6875Z" fill="#35B6BD"/>
<path fill-rule="evenodd" clip-rule="evenodd" d="M1.31253 3.93752C1.19737 3.93665 1.0832 3.95869 0.976646 4.00235C0.870092 4.04601 0.773285 4.11043 0.691859 4.19186C0.610434 4.27329 0.546015 4.37009 0.502351 4.47665C0.458688 4.5832 0.436651 4.69737 0.437525 4.81253V7.43753H9.62502V4.81253C9.62502 4.32406 9.23849 3.93752 8.75002 3.93752H1.31253ZM1.53128 5.03128H3.06253C3.12054 5.03128 3.17618 5.05432 3.2172 5.09535C3.25823 5.13637 3.28128 5.19201 3.28128 5.25003C3.28128 5.30804 3.25823 5.36368 3.2172 5.4047C3.17618 5.44573 3.12054 5.46878 3.06253 5.46878H1.53128C1.47326 5.46878 1.41762 5.44573 1.3766 5.4047C1.33557 5.36368 1.31253 5.30804 1.31253 5.25003C1.31253 5.19201 1.33557 5.13637 1.3766 5.09535C1.41762 5.05432 1.47326 5.03128 1.53128 5.03128ZM1.53128 5.90628H5.25002C5.30804 5.90628 5.36368 5.92932 5.40471 5.97035C5.44573 6.01137 5.46877 6.06701 5.46877 6.12503C5.46877 6.18304 5.44573 6.23868 5.40471 6.27971C5.36368 6.32073 5.30804 6.34378 5.25002 6.34378H1.53128C1.47326 6.34378 1.41762 6.32073 1.3766 6.27971C1.33557 6.23868 1.31253 6.18304 1.31253 6.12503C1.31253 6.06701 1.33557 6.01137 1.3766 5.97035C1.41762 5.92932 1.47326 5.90628 1.53128 5.90628ZM0.437525 7.87503V8.75003H9.62502V7.87503H0.437525ZM0.437525 9.18753C0.437525 9.67599 0.824056 10.0625 1.31253 10.0625H8.75002C9.23849 10.0625 9.62502 9.67599 9.62502 9.18753H0.437525Z" fill="#35B6BD"/>
</svg>
