<svg width="14" height="14" viewBox="0 0 14 14" fill="none" xmlns="http://www.w3.org/2000/svg">
<g clip-path="url(#clip0_155_1692)">
<path d="M3.05337 5.92519C2.24935 5.92519 1.51605 5.61689 0.965262 5.11239C0.371547 5.66977 0 6.46123 0 7.33793V7.74808H6.10676V7.33793C6.10676 6.46123 5.73524 5.66977 5.1415 5.11237C4.59071 5.61686 3.85741 5.92519 3.05337 5.92519Z" fill="#35B6BD"/>
<path d="M3.05333 5.10482C4.30931 5.10482 5.32748 4.08665 5.32748 2.83067C5.32748 1.57469 4.30931 0.556519 3.05333 0.556519C1.79735 0.556519 0.779175 1.57469 0.779175 2.83067C0.779175 4.08665 1.79735 5.10482 3.05333 5.10482Z" fill="#35B6BD"/>
<path d="M12.3622 9.79352C11.7104 10.3264 10.8782 10.6465 9.97262 10.6465C9.067 10.6465 8.23485 10.3264 7.58303 9.79352C6.59023 10.5277 5.94519 11.7065 5.94519 13.0333V13.4435H14.0001V13.0333C14.0001 11.7065 13.355 10.5277 12.3622 9.79352Z" fill="#35B6BD"/>
<path d="M12.0645 8.95926C13.2209 7.8029 13.2209 5.92806 12.0645 4.7717C10.9082 3.61533 9.03335 3.61533 7.87699 4.7717C6.72062 5.92806 6.72062 7.8029 7.87698 8.95926C9.03335 10.1156 10.9082 10.1156 12.0645 8.95926Z" fill="#35B6BD"/>
<path d="M3.31658 10.4313L3.83854 10.9533H0.820312V8.59375H0V11.7736H3.83854L3.31658 12.2956L3.89662 12.8756L5.40881 11.3635L3.89662 9.85129L3.31658 10.4313Z" fill="#35B6BD"/>
</g>
<defs>
<clipPath id="clip0_155_1692">
<rect width="14" height="14" fill="white"/>
</clipPath>
</defs>
</svg>
