<svg width="20" height="20" viewBox="0 0 20 20" fill="none" xmlns="http://www.w3.org/2000/svg">
<g clip-path="url(#clip0_155_1113)">
<path d="M9.43646 20C9.15279 20.0016 8.87506 19.9188 8.63867 19.7619C8.40229 19.6051 8.21795 19.3815 8.10917 19.1195C8.0004 18.8575 7.9721 18.5691 8.0279 18.2909C8.0837 18.0128 8.22106 17.7576 8.42247 17.5578L15.9917 10.0029L8.42247 2.44798C8.15354 2.17906 8.00246 1.81432 8.00246 1.434C8.00246 1.24568 8.03955 1.05921 8.11162 0.88523C8.18368 0.711249 8.28931 0.553167 8.42247 0.420008C8.55563 0.286849 8.71371 0.181222 8.88769 0.109157C9.06167 0.0370918 9.24814 0 9.43646 0C9.81678 0 10.1815 0.151081 10.4504 0.420008L19.0194 8.98892C19.2854 9.2565 19.4347 9.61847 19.4347 9.99577C19.4347 10.3731 19.2854 10.735 19.0194 11.0026L10.4504 19.5715C10.3182 19.7065 10.1604 19.8138 9.98639 19.8874C9.81233 19.9609 9.62541 19.9992 9.43646 20Z" fill="#A9A9A9"/>
</g>
<defs>
<clipPath id="clip0_155_1113">
<rect width="20" height="20" fill="white"/>
</clipPath>
</defs>
</svg>
