<svg width="20" height="20" viewBox="0 0 20 20" fill="none" xmlns="http://www.w3.org/2000/svg">
<g clip-path="url(#clip0_749_1383)">
<path d="M3.00811 4.68293C3.24529 4.68293 3.47276 4.58871 3.64048 4.42099C3.80819 4.25328 3.90242 4.02581 3.90242 3.78862V2.89431C3.90242 2.65712 3.80819 2.42965 3.64048 2.26194C3.47276 2.09422 3.24529 2 3.00811 2C2.77092 2 2.54345 2.09422 2.37573 2.26194C2.20802 2.42965 2.1138 2.65712 2.1138 2.89431V3.78862C2.1138 4.02581 2.20802 4.25328 2.37573 4.42099C2.54345 4.58871 2.77092 4.68293 3.00811 4.68293ZM5.61413 14.5203H3.90242V6.47155C3.90242 6.23437 3.80819 6.00689 3.64048 5.83918C3.47276 5.67146 3.24529 5.57724 3.00811 5.57724C2.77092 5.57724 2.54345 5.67146 2.37573 5.83918C2.20802 6.00689 2.1138 6.23437 2.1138 6.47155V14.5203H0.402086C0.322542 14.5204 0.244803 14.5441 0.178688 14.5883C0.112572 14.6325 0.0610445 14.6953 0.030614 14.7688C0.000183439 14.8423 -0.00778526 14.9232 0.0077137 15.0012C0.0232127 15.0792 0.0614844 15.1509 0.117695 15.2072L2.72372 17.8132C2.76102 17.8506 2.80534 17.8803 2.85414 17.9006C2.90295 17.9208 2.95527 17.9313 3.00811 17.9313C3.06095 17.9313 3.11327 17.9208 3.16207 17.9006C3.21087 17.8803 3.25519 17.8506 3.2925 17.8132L5.89852 15.2072C5.95473 15.1509 5.993 15.0792 6.0085 15.0012C6.024 14.9232 6.01603 14.8423 5.9856 14.7688C5.95517 14.6953 5.90364 14.6325 5.83752 14.5883C5.77141 14.5441 5.69367 14.5204 5.61413 14.5203ZM8.37397 3.78862H13.7398C13.977 3.78862 14.2045 3.6944 14.3722 3.52668C14.5399 3.35897 14.6341 3.1315 14.6341 2.89431C14.6341 2.65712 14.5399 2.42965 14.3722 2.26194C14.2045 2.09422 13.977 2 13.7398 2H8.37397C8.13678 2 7.90931 2.09422 7.74159 2.26194C7.57388 2.42965 7.47966 2.65712 7.47966 2.89431C7.47966 3.1315 7.57388 3.35897 7.74159 3.52668C7.90931 3.6944 8.13678 3.78862 8.37397 3.78862ZM8.37397 8.26017H15.5284C15.7656 8.26017 15.9931 8.16595 16.1608 7.99823C16.3285 7.83052 16.4228 7.60305 16.4228 7.36586C16.4228 7.12868 16.3285 6.9012 16.1608 6.73349C15.9931 6.56577 15.7656 6.47155 15.5284 6.47155H8.37397C8.13678 6.47155 7.90931 6.56577 7.74159 6.73349C7.57388 6.9012 7.47966 7.12868 7.47966 7.36586C7.47966 7.60305 7.57388 7.83052 7.74159 7.99823C7.90931 8.16595 8.13678 8.26017 8.37397 8.26017ZM8.37397 12.7317H17.3171C17.5543 12.7317 17.7817 12.6375 17.9494 12.4698C18.1172 12.3021 18.2114 12.0746 18.2114 11.8374C18.2114 11.6002 18.1172 11.3728 17.9494 11.205C17.7817 11.0373 17.5543 10.9431 17.3171 10.9431H8.37397C8.13678 10.9431 7.90931 11.0373 7.74159 11.205C7.57388 11.3728 7.47966 11.6002 7.47966 11.8374C7.47966 12.0746 7.57388 12.3021 7.74159 12.4698C7.90931 12.6375 8.13678 12.7317 8.37397 12.7317ZM19.1057 15.4147H8.37397C8.13678 15.4147 7.90931 15.5089 7.74159 15.6766C7.57388 15.8443 7.47966 16.0718 7.47966 16.309C7.47966 16.5461 7.57388 16.7736 7.74159 16.9413C7.90931 17.1091 8.13678 17.2033 8.37397 17.2033H19.1057C19.3429 17.2033 19.5703 17.1091 19.7381 16.9413C19.9058 16.7736 20 16.5461 20 16.309C20 16.0718 19.9058 15.8443 19.7381 15.6766C19.5703 15.5089 19.3429 15.4147 19.1057 15.4147Z" fill="#5E5E5E"/>
</g>
<defs>
<clipPath id="clip0_749_1383">
<rect width="20" height="20" fill="white"/>
</clipPath>
</defs>
</svg>
