<svg width="26" height="26" viewBox="0 0 26 26" fill="none" xmlns="http://www.w3.org/2000/svg">
<g clip-path="url(#clip0_155_1042)">
<path d="M12.687 14.1404V16.4211H13.5993V14.1404C13.5993 14.0194 13.6473 13.9034 13.7329 13.8179C13.8184 13.7323 13.9345 13.6843 14.0554 13.6843H16.3361V12.772H14.0554C13.9345 12.772 13.8184 12.7239 13.7329 12.6384C13.6473 12.5528 13.5993 12.4368 13.5993 12.3158V10.0352H12.687V12.3158C12.687 12.4368 12.639 12.5528 12.5534 12.6384C12.4679 12.7239 12.3519 12.772 12.2309 12.772H9.9502V13.6843H12.2309C12.3519 13.6843 12.4679 13.7323 12.5534 13.8179C12.639 13.9034 12.687 14.0194 12.687 14.1404Z" fill="#35B6BD"/>
<path d="M4.47656 18.7016C4.49043 19.7546 4.82981 20.7775 5.44813 21.63C5.99075 21.1696 6.69187 20.9395 7.40179 20.9889C8.11172 21.0383 8.77419 21.3634 9.24776 21.8946H16.4182L17.928 19.9149C18.1871 19.5839 18.5091 19.3075 18.8754 19.1016C19.2418 18.8957 19.6454 18.7644 20.0628 18.7153C20.6572 18.6418 21.2602 18.74 21.8006 18.9981C21.8052 18.8977 21.8098 18.7974 21.8098 18.7016C21.8057 17.7974 21.5923 16.9064 21.1863 16.0984C20.7804 15.2904 20.1928 14.5874 19.4698 14.0444C19.273 15.5833 18.522 16.9977 17.3574 18.0228C16.1929 19.0479 14.6946 19.6134 13.1432 19.6134C11.5917 19.6134 10.0935 19.0479 8.92893 18.0228C7.76438 16.9977 7.01338 15.5833 6.81655 14.0444C6.09349 14.5874 5.50597 15.2904 5.10001 16.0984C4.69404 16.9064 4.48065 17.7974 4.47656 18.7016Z" fill="#35B6BD"/>
<path d="M21.86 20.0974C21.8555 20.0974 21.8555 20.0974 21.8509 20.0929C21.376 19.7187 20.772 19.5483 20.1715 19.6193C19.5711 19.6903 19.0234 19.9968 18.6488 20.4715L17.5632 21.8946H22.7176C22.7196 21.5498 22.6435 21.2089 22.4949 20.8977C22.3464 20.5864 22.1294 20.3128 21.86 20.0974Z" fill="#35B6BD"/>
<path d="M0.371338 20.5262C0.372421 20.8888 0.51694 21.2362 0.773333 21.4926C1.02973 21.749 1.37716 21.8935 1.73975 21.8946H4.53587C3.91099 20.9462 3.57359 19.8373 3.5643 18.7016C3.57362 17.5528 3.87231 16.4248 4.43276 15.4219C4.99322 14.4189 5.79737 13.5734 6.77094 12.9634C6.83628 11.3171 7.53622 9.76005 8.7241 8.61839C9.91198 7.47672 11.4956 6.83909 13.1432 6.83909C14.7907 6.83909 16.3744 7.47672 17.5622 8.61839C18.7501 9.76005 19.4501 11.3171 19.5154 12.9634C20.489 13.5734 21.2931 14.4189 21.8536 15.4219C22.414 16.4248 22.7127 17.5528 22.7221 18.7016C22.7223 18.9966 22.6979 19.2911 22.6491 19.582C22.9612 19.8807 23.2095 20.2397 23.3789 20.6372C23.5482 21.0347 23.6351 21.4625 23.6343 21.8946H24.5466C24.9092 21.8935 25.2566 21.749 25.513 21.4926C25.7694 21.2362 25.9139 20.8888 25.915 20.5262V5.47364H0.371338V20.5262ZM8.12567 0.456137V2.28068C8.12567 2.40166 8.17372 2.51768 8.25927 2.60322C8.34481 2.68876 8.46083 2.73682 8.5818 2.73682C8.70278 2.73682 8.8188 2.68876 8.90434 2.60322C8.98988 2.51768 9.03794 2.40166 9.03794 2.28068V0.456137C9.03794 0.335162 8.98988 0.219142 8.90434 0.133599C8.8188 0.0480571 8.70278 0 8.5818 0C8.46083 0 8.34481 0.0480571 8.25927 0.133599C8.17372 0.219142 8.12567 0.335162 8.12567 0.456137ZM3.5643 0.456137V2.28068C3.5643 2.40166 3.61235 2.51768 3.6979 2.60322C3.78344 2.68876 3.89946 2.73682 4.02043 2.73682C4.14141 2.73682 4.25743 2.68876 4.34297 2.60322C4.42851 2.51768 4.47657 2.40166 4.47657 2.28068V0.456137C4.47657 0.335162 4.42851 0.219142 4.34297 0.133599C4.25743 0.0480571 4.14141 0 4.02043 0C3.89946 0 3.78344 0.0480571 3.6979 0.133599C3.61235 0.219142 3.5643 0.335162 3.5643 0.456137ZM17.7045 0C17.5836 0 17.4675 0.0480571 17.382 0.133599C17.2965 0.219142 17.2484 0.335162 17.2484 0.456137V2.28068C17.2484 2.40166 17.2965 2.51768 17.382 2.60322C17.4675 2.68876 17.5836 2.73682 17.7045 2.73682C17.8255 2.73682 17.9415 2.68876 18.0271 2.60322C18.1126 2.51768 18.1607 2.40166 18.1607 2.28068V0.456137C18.1607 0.335162 18.1126 0.219142 18.0271 0.133599C17.9415 0.0480571 17.8255 0 17.7045 0Z" fill="#35B6BD"/>
<path d="M13.1431 18.7016C14.2257 18.7016 15.2839 18.3806 16.1841 17.7791C17.0842 17.1777 17.7858 16.3228 18.2001 15.3226C18.6144 14.3225 18.7228 13.2219 18.5116 12.1601C18.3004 11.0983 17.779 10.123 17.0135 9.35752C16.248 8.59202 15.2727 8.07071 14.2109 7.8595C13.1492 7.6483 12.0486 7.7567 11.0484 8.17099C10.0482 8.58527 9.19336 9.28684 8.59191 10.187C7.99046 11.0871 7.66943 12.1454 7.66943 13.228C7.671 14.6792 8.24819 16.0705 9.27436 17.0967C10.3005 18.1229 11.6919 18.7 13.1431 18.7016ZM9.03785 12.7718C9.03785 12.5299 9.13396 12.2978 9.30504 12.1268C9.47613 11.9557 9.70817 11.8596 9.95012 11.8596H11.7747V10.035C11.7747 9.79306 11.8708 9.56102 12.0419 9.38994C12.213 9.21885 12.445 9.12274 12.6869 9.12274H13.5992C13.8412 9.12274 14.0732 9.21885 14.2443 9.38994C14.4154 9.56102 14.5115 9.79306 14.5115 10.035V11.8596H16.336C16.578 11.8596 16.81 11.9557 16.9811 12.1268C17.1522 12.2978 17.2483 12.5299 17.2483 12.7718V13.6841C17.2483 13.9261 17.1522 14.1581 16.9811 14.3292C16.81 14.5003 16.578 14.5964 16.336 14.5964H14.5115V16.4209C14.5115 16.6629 14.4154 16.8949 14.2443 17.066C14.0732 17.2371 13.8412 17.3332 13.5992 17.3332H12.6869C12.445 17.3332 12.213 17.2371 12.0419 17.066C11.8708 16.8949 11.7747 16.6629 11.7747 16.4209V14.5964H9.95012C9.70817 14.5964 9.47613 14.5003 9.30504 14.3292C9.13396 14.1581 9.03785 13.9261 9.03785 13.6841V12.7718ZM12.6869 0.456137V2.28069C12.6869 2.40166 12.735 2.51768 12.8205 2.60322C12.9061 2.68877 13.0221 2.73682 13.1431 2.73682C13.2641 2.73682 13.3801 2.68877 13.4656 2.60322C13.5512 2.51768 13.5992 2.40166 13.5992 2.28069V0.456137C13.5992 0.335162 13.5512 0.219142 13.4656 0.133599C13.3801 0.0480571 13.2641 0 13.1431 0C13.0221 0 12.9061 0.0480571 12.8205 0.133599C12.735 0.219142 12.6869 0.335162 12.6869 0.456137Z" fill="#35B6BD"/>
<path d="M24.5466 1.82446H23.6343V2.2806C23.6343 2.64352 23.4902 2.99159 23.2335 3.24821C22.9769 3.50484 22.6288 3.64901 22.2659 3.64901C21.903 3.64901 21.5549 3.50484 21.2983 3.24821C21.0417 2.99159 20.8975 2.64352 20.8975 2.2806V1.82446H19.073V2.2806C19.073 2.64352 18.9288 2.99159 18.6722 3.24821C18.4155 3.50484 18.0675 3.64901 17.7045 3.64901C17.3416 3.64901 16.9936 3.50484 16.7369 3.24821C16.4803 2.99159 16.3361 2.64352 16.3361 2.2806V1.82446H14.5116V2.2806C14.5116 2.64352 14.3674 2.99159 14.1108 3.24821C13.8542 3.50484 13.5061 3.64901 13.1432 3.64901C12.7802 3.64901 12.4322 3.50484 12.1756 3.24821C11.9189 2.99159 11.7748 2.64352 11.7748 2.2806V1.82446H9.95022V2.2806C9.95022 2.64352 9.80604 2.99159 9.54942 3.24821C9.29279 3.50484 8.94473 3.64901 8.5818 3.64901C8.21888 3.64901 7.87082 3.50484 7.61419 3.24821C7.35756 2.99159 7.21339 2.64352 7.21339 2.2806V1.82446H5.38884V2.2806C5.38884 2.64352 5.24467 2.99159 4.98805 3.24821C4.73142 3.50484 4.38336 3.64901 4.02043 3.64901C3.65751 3.64901 3.30945 3.50484 3.05282 3.24821C2.79619 2.99159 2.65202 2.64352 2.65202 2.2806V1.82446H1.73975C1.37682 1.82446 1.02876 1.96863 0.772136 2.22526C0.515509 2.48189 0.371338 2.82995 0.371338 3.19287V4.56128H25.915V3.19287C25.915 2.82995 25.7708 2.48189 25.5142 2.22526C25.2576 1.96863 24.9095 1.82446 24.5466 1.82446Z" fill="#35B6BD"/>
<path d="M22.7221 2.28068V0.456137C22.7221 0.335162 22.674 0.219142 22.5885 0.133599C22.5029 0.0480571 22.3869 0 22.266 0C22.145 0 22.029 0.0480571 21.9434 0.133599C21.8579 0.219142 21.8098 0.335162 21.8098 0.456137V2.28068C21.8098 2.40166 21.8579 2.51768 21.9434 2.60322C22.029 2.68876 22.145 2.73682 22.266 2.73682C22.3869 2.73682 22.5029 2.68876 22.5885 2.60322C22.674 2.51768 22.7221 2.40166 22.7221 2.28068Z" fill="#35B6BD"/>
<path d="M7.21346 25.5436C8.22113 25.5436 9.03801 24.7267 9.03801 23.7191C9.03801 22.7114 8.22113 21.8945 7.21346 21.8945C6.20579 21.8945 5.38892 22.7114 5.38892 23.7191C5.38892 24.7267 6.20579 25.5436 7.21346 25.5436Z" fill="#35B6BD"/>
<path d="M15.8596 22.8018L15.6589 23.0618C15.5101 23.2522 15.4424 23.4936 15.4706 23.7336C15.4988 23.9736 15.6206 24.1928 15.8094 24.3435L16.1698 24.6263C16.2647 24.7013 16.3856 24.7355 16.5058 24.7214C16.626 24.7073 16.7356 24.646 16.8106 24.551C16.8856 24.4561 16.9198 24.3352 16.9057 24.215C16.8916 24.0948 16.8303 23.9852 16.7354 23.9102L16.3796 23.6228L17.0045 22.8018H15.8596ZM23.509 22.8068H22.4485C22.4394 22.8205 22.4302 22.8296 22.4211 22.8433L20.7038 25.0875L20.348 24.8047C20.301 24.7675 20.2471 24.74 20.1894 24.7237C20.1318 24.7074 20.0715 24.7026 20.012 24.7096C19.9524 24.7165 19.8949 24.7352 19.8426 24.7644C19.7903 24.7937 19.7442 24.8329 19.7071 24.8799C19.67 24.9269 19.6424 24.9808 19.6261 25.0385C19.6098 25.0961 19.605 25.1564 19.612 25.2159C19.619 25.2755 19.6376 25.333 19.6669 25.3853C19.6961 25.4376 19.7353 25.4837 19.7824 25.5208L20.1427 25.8036C20.3019 25.9311 20.4998 26.0003 20.7038 25.9997C20.7403 26.0005 20.7769 25.999 20.8132 25.9952C21.0561 25.965 21.2773 25.8405 21.429 25.6485L23.1395 23.4043C23.2871 23.2213 23.4112 23.0206 23.509 22.8068Z" fill="#35B6BD"/>
</g>
<defs>
<clipPath id="clip0_155_1042">
<rect width="26" height="26" fill="white"/>
</clipPath>
</defs>
</svg>
