<svg width="55" height="55" viewBox="0 0 55 55" fill="none" xmlns="http://www.w3.org/2000/svg">
<path d="M51.0898 28.9369V40.9571C51.0898 48.0937 45.2849 53.8997 38.1497 53.8997H31.128C26.3807 53.8997 22.2947 51.5411 19.9178 47.4287L11.9356 33.5993C11.1805 32.2938 11.6283 30.6146 12.9342 29.8569C15.9082 28.1418 19.5481 29.0708 21.2231 31.9708L23.3356 35.6297V11.766C23.3356 9.50696 25.1749 7.66908 27.4358 7.66908C29.6967 7.66908 31.5329 9.50696 31.5329 11.766V22.7693C32.2398 22.1899 33.143 21.842 34.1262 21.842C35.7992 21.842 37.2413 22.85 37.877 24.2905C38.6227 23.522 39.6664 23.0437 40.8198 23.0437C42.6896 23.0437 44.2708 24.3027 44.7604 26.0174C45.431 25.444 46.3009 25.0972 47.2499 25.0972C49.3673 25.0972 51.09 26.8197 51.09 28.9371L51.0898 28.9369ZM18.6249 16.7559C18.7986 16.7559 18.9755 16.7275 19.149 16.6679C19.9906 16.3785 20.4382 15.4618 20.1488 14.6202C19.8714 13.8136 19.7308 12.9635 19.7308 12.0931C19.7308 7.80873 23.2167 4.323 27.5015 4.323C31.7864 4.323 35.2722 7.80862 35.2722 12.0931C35.273 12.953 35.1308 13.807 34.8513 14.6201C34.5619 15.4617 35.0094 16.3785 35.851 16.6679C36.6924 16.9574 37.6094 16.5098 37.8988 15.6684C38.2944 14.5179 38.4958 13.3097 38.4948 12.0931C38.4948 6.03176 33.5633 1.10034 27.5015 1.10034C21.4397 1.10034 16.5082 6.03165 16.5082 12.0931C16.5082 13.3209 16.7077 14.5237 17.1012 15.6681C17.3309 16.3362 17.9559 16.756 18.6249 16.756V16.7559ZM6.31072 13.8962H12.8881C13.7779 13.8962 14.4994 13.1748 14.4994 12.2849C14.4994 11.395 13.7779 10.6736 12.8881 10.6736H6.41234L7.43027 9.67433C8.06535 9.05096 8.0748 8.03077 7.45132 7.39569C6.82795 6.76062 5.80777 6.75116 5.17269 7.37453L1.34192 11.135C1.19088 11.2833 1.07052 11.4598 0.987719 11.6545C0.904917 11.8493 0.861292 12.0584 0.859337 12.2701C0.857382 12.4817 0.897134 12.6916 0.976324 12.8878C1.05551 13.0841 1.17259 13.2628 1.32086 13.4138L5.07859 17.2413C5.22844 17.3943 5.40737 17.5158 5.60485 17.5987C5.80233 17.6815 6.01438 17.7241 6.22854 17.7238C6.63588 17.7238 7.04366 17.5703 7.35733 17.2623C7.9923 16.6388 8.00175 15.6186 7.37827 14.9837L6.31072 13.8963V13.8962ZM53.6585 11.1355L49.8308 7.37496C49.196 6.75127 48.1757 6.7604 47.5521 7.39516C46.9284 8.03002 46.9375 9.05021 47.5723 9.67379L48.5899 10.6735H42.112C41.2221 10.6735 40.5006 11.3949 40.5006 12.2848C40.5006 13.1747 41.2221 13.8961 42.112 13.8961H48.6893L47.6217 14.9834C46.9983 15.6185 47.0077 16.6387 47.6427 17.2621C47.9436 17.5583 48.3492 17.7241 48.7715 17.7236C49.1888 17.7236 49.606 17.5624 49.9214 17.2411L53.6791 13.4136C54.3024 12.7787 54.2932 11.7587 53.6585 11.1353V11.1355Z" fill="white"/>
</svg>
