<svg width="20" height="20" viewBox="0 0 20 20" fill="none" xmlns="http://www.w3.org/2000/svg">
<g clip-path="url(#clip0_771_2196)">
<path d="M12.0691 4.47328C12.9939 5.05309 13.6423 6.03424 13.7604 7.17314C14.1482 7.35556 14.5713 7.45032 14.9999 7.45069C16.62 7.45069 17.9331 6.13757 17.9331 4.51771C17.9331 2.89759 16.62 1.58447 14.9999 1.58447C13.3952 1.58497 12.0936 2.87463 12.0691 4.47328ZM10.1475 10.479C11.7676 10.479 13.0807 9.16565 13.0807 7.54579C13.0807 5.92592 11.7674 4.6128 10.1475 4.6128C8.52764 4.6128 7.21378 5.92617 7.21378 7.54604C7.21378 9.1659 8.52764 10.479 10.1475 10.479ZM11.3917 10.6789H8.90278C6.8319 10.6789 5.14714 12.364 5.14714 14.4348V17.4786L5.15487 17.5263L5.36453 17.592C7.34082 18.2095 9.05778 18.4154 10.471 18.4154C13.2312 18.4154 14.8312 17.6284 14.9297 17.5782L15.1257 17.4791H15.1466V14.4348C15.1474 12.364 13.4626 10.6789 11.3917 10.6789ZM16.2446 7.65087H13.7749C13.7498 8.6045 13.3487 9.50957 12.6592 10.1688C14.4999 10.7161 15.8468 12.4231 15.8468 14.4393V15.3773C18.2853 15.288 19.6905 14.5968 19.7831 14.5504L19.979 14.4511H20V11.4063C20 9.33563 18.3152 7.65087 16.2446 7.65087ZM5.00062 7.45119C5.57444 7.45119 6.10832 7.28371 6.56059 6.99843C6.7025 6.08053 7.19084 5.25195 7.92512 4.68319C7.92812 4.62828 7.93336 4.57387 7.93336 4.51846C7.93336 2.89834 6.61999 1.58522 5.00062 1.58522C3.38026 1.58522 2.06739 2.89834 2.06739 4.51846C2.06739 6.13782 3.38026 7.45119 5.00062 7.45119ZM7.63484 10.1688C6.94911 9.51271 6.54868 8.61343 6.51991 7.66484C6.4283 7.6581 6.3377 7.65087 6.24435 7.65087H3.75565C1.68476 7.65087 0 9.33563 0 11.4063V14.4506L0.00773743 14.4975L0.217397 14.5636C1.80282 15.0586 3.21777 15.2867 4.44677 15.3586V14.4393C4.44727 12.4231 5.79359 10.7166 7.63484 10.1688Z" fill="#6B6B6B"/>
</g>
<defs>
<clipPath id="clip0_771_2196">
<rect width="20" height="20" fill="white"/>
</clipPath>
</defs>
</svg>
