<svg width="14" height="14" viewBox="0 0 14 14" fill="none" xmlns="http://www.w3.org/2000/svg">
<g clip-path="url(#clip0_155_2238)">
<path d="M12.0896 7.28353C12.104 7.27069 12.113 7.25276 12.1146 7.23347V3.22871C12.1146 2.81714 11.9511 2.42242 11.6601 2.13139C11.369 1.84037 10.9743 1.67687 10.5628 1.67687H10.3375V1.25136C10.3375 0.91945 10.2056 0.601129 9.97093 0.36643C9.73623 0.131731 9.41791 -0.00012207 9.086 -0.00012207C8.75408 -0.00012207 8.43576 0.131731 8.20106 0.36643C7.96636 0.601129 7.83451 0.91945 7.83451 1.25136V1.67687H4.23023V1.25136C4.23023 0.91945 4.09838 0.601129 3.86368 0.36643C3.62898 0.131731 3.31066 -0.00012207 2.97874 -0.00012207C2.64683 -0.00012207 2.32851 0.131731 2.09381 0.36643C1.85911 0.601129 1.72726 0.91945 1.72726 1.25136V1.67687H1.52702C1.32439 1.67684 1.12378 1.71715 0.936893 1.79544C0.750001 1.87373 0.580562 1.98844 0.438452 2.13288C0.296342 2.27732 0.184404 2.4486 0.109164 2.63674C0.0339225 2.82488 -0.00311658 3.02611 0.000205191 3.22871V10.3872C-0.00311658 10.5898 0.0339225 10.7911 0.109164 10.9792C0.184404 11.1673 0.296342 11.3386 0.438452 11.4831C0.580562 11.6275 0.750001 11.7422 0.936893 11.8205C1.12378 11.8988 1.32439 11.9391 1.52702 11.9391H6.70817C6.95588 12.4448 7.31635 12.8868 7.76183 13.2313C8.2073 13.5757 8.72589 13.8133 9.27765 13.9258C9.82941 14.0382 10.3996 14.0225 10.9444 13.8799C11.4891 13.7373 11.9938 13.4715 12.4197 13.1031C12.8455 12.7347 13.1812 12.2734 13.4007 11.7549C13.6202 11.2363 13.7178 10.6743 13.6859 10.1121C13.654 9.54993 13.4935 9.00255 13.2167 8.51215C12.94 8.02175 12.5544 7.60142 12.0896 7.28353ZM8.53534 1.25136C8.53534 1.10532 8.59336 0.965261 8.69663 0.861993C8.79989 0.758725 8.93995 0.70071 9.086 0.70071C9.23204 0.70071 9.3721 0.758725 9.47537 0.861993C9.57864 0.965261 9.63665 1.10532 9.63665 1.25136V1.67687H8.53534V1.25136ZM2.42809 1.25136C2.42809 1.10532 2.4861 0.965261 2.58937 0.861993C2.69264 0.758725 2.8327 0.70071 2.97874 0.70071C3.12479 0.70071 3.26485 0.758725 3.36811 0.861993C3.47138 0.965261 3.5294 1.10532 3.5294 1.25136V1.67687H2.42809V1.25136ZM1.85241 4.7305H9.086C9.17893 4.7305 9.26806 4.76742 9.33378 4.83313C9.39949 4.89885 9.43641 4.98798 9.43641 5.08091C9.43641 5.17385 9.39949 5.26298 9.33378 5.32869C9.26806 5.39441 9.17893 5.43133 9.086 5.43133H1.85241C1.75947 5.43133 1.67034 5.39441 1.60462 5.32869C1.53891 5.26298 1.50199 5.17385 1.50199 5.08091C1.50199 4.98798 1.53891 4.89885 1.60462 4.83313C1.67034 4.76742 1.75947 4.7305 1.85241 4.7305ZM5.28148 9.23585H1.85241C1.75947 9.23585 1.67034 9.19893 1.60462 9.13321C1.53891 9.0675 1.50199 8.97837 1.50199 8.88543C1.50199 8.79249 1.53891 8.70337 1.60462 8.63765C1.67034 8.57193 1.75947 8.53502 1.85241 8.53502H5.28148C5.32749 8.53502 5.37306 8.54408 5.41558 8.56169C5.45809 8.5793 5.49672 8.60511 5.52926 8.63765C5.5618 8.67019 5.58761 8.70882 5.60522 8.75133C5.62283 8.79385 5.63189 8.83941 5.63189 8.88543C5.63189 8.93145 5.62283 8.97702 5.60522 9.01953C5.58761 9.06205 5.5618 9.10067 5.52926 9.13321C5.49672 9.16575 5.45809 9.19156 5.41558 9.20917C5.37306 9.22678 5.32749 9.23585 5.28148 9.23585ZM6.68314 7.33359H1.85241C1.75947 7.33359 1.67034 7.29667 1.60462 7.23095C1.53891 7.16524 1.50199 7.07611 1.50199 6.98317C1.50199 6.89024 1.53891 6.80111 1.60462 6.73539C1.67034 6.66967 1.75947 6.63276 1.85241 6.63276H6.68314C6.77608 6.63276 6.86521 6.66967 6.93092 6.73539C6.99664 6.80111 7.03356 6.89024 7.03356 6.98317C7.03356 7.07611 6.99664 7.16524 6.93092 7.23095C6.86521 7.29667 6.77608 7.33359 6.68314 7.33359ZM9.98707 13.2656C9.31382 13.2638 8.66141 13.032 8.13792 12.6087C7.61443 12.1853 7.25128 11.5958 7.10865 10.9379C7.06007 10.6821 7.03493 10.4223 7.03356 10.1619C7.05814 9.57775 7.25413 9.0137 7.5971 8.54013C7.94006 8.06656 8.41483 7.7044 8.96222 7.49882C9.5096 7.29323 10.1054 7.25331 10.6753 7.38402C11.2452 7.51474 11.7641 7.81031 12.1672 8.23389C12.5702 8.65747 12.8397 9.19032 12.9421 9.76602C13.0444 10.3417 12.975 10.9348 12.7425 11.4713C12.51 12.0078 12.1248 12.4641 11.6348 12.7832C11.1448 13.1022 10.5718 13.27 9.98707 13.2656Z" fill="#35B6BD"/>
<path d="M10.3626 10.162V8.25972C10.3628 8.16434 10.3267 8.07245 10.2616 8.00271C10.1965 7.93298 10.1073 7.89064 10.0122 7.88428C9.91259 7.88428 9.81709 7.92383 9.74668 7.99424C9.67627 8.06465 9.63672 8.16015 9.63672 8.25972V10.3122C9.63926 10.3602 9.65169 10.4073 9.67322 10.4503C9.69476 10.4934 9.72493 10.5316 9.76187 10.5625L11.0384 11.839C11.0694 11.874 11.1082 11.9013 11.1517 11.9187C11.1951 11.9361 11.242 11.9431 11.2887 11.9391C11.3349 11.9398 11.3809 11.9313 11.4238 11.9141C11.4668 11.8969 11.5059 11.8714 11.539 11.839C11.6005 11.7701 11.6346 11.681 11.6346 11.5887C11.6346 11.4963 11.6005 11.4072 11.539 11.3384L10.3626 10.162Z" fill="#35B6BD"/>
</g>
<defs>
<clipPath id="clip0_155_2238">
<rect width="14" height="14" fill="white"/>
</clipPath>
</defs>
</svg>
