<svg width="26" height="26" viewBox="0 0 26 26" fill="none" xmlns="http://www.w3.org/2000/svg">
<path fill-rule="evenodd" clip-rule="evenodd" d="M13.3369 0C14.1594 0 14.9739 0.162003 15.7337 0.476761C16.4936 0.791518 17.1841 1.25286 17.7657 1.83446C18.3473 2.41606 18.8086 3.10651 19.1234 3.8664C19.4381 4.62629 19.6001 5.44074 19.6001 6.26324C19.6001 6.2777 19.5997 6.29211 19.5996 6.30657L13.3802 12.5259C13.3658 12.5259 13.3514 12.5265 13.3369 12.5265C12.5144 12.5265 11.7 12.3645 10.9401 12.0497C10.1802 11.735 9.48973 11.2736 8.90813 10.692C8.32653 10.1104 7.86519 9.41997 7.55043 8.66008C7.23567 7.90019 7.07367 7.08574 7.07367 6.26324C7.07367 5.44074 7.23567 4.62629 7.55043 3.8664C7.86519 3.10651 8.32653 2.41606 8.90813 1.83446C9.48973 1.25286 10.1802 0.791518 10.9401 0.476761C11.7 0.162003 12.5144 -1.22562e-08 13.3369 0ZM10.3937 16.5849L11.3636 15.6153L13.7777 18.0294L12.8078 18.999C12.7569 19.0497 12.688 19.0781 12.6162 19.0781C12.5445 19.0781 12.4756 19.0497 12.4247 18.999L10.3935 16.9678C10.3428 16.9169 10.3144 16.848 10.3144 16.7763C10.3144 16.7045 10.3428 16.6356 10.3935 16.5848L10.3937 16.5849ZM11.8995 15.0791L14.3136 17.4932L23.5759 8.2309C23.8954 7.91065 24.0748 7.47665 24.0745 7.02424C24.0743 6.57183 23.8944 6.13803 23.5745 5.81813C23.2546 5.49824 22.8208 5.31842 22.3684 5.31818C21.916 5.31794 21.482 5.4973 21.1618 5.81685L11.8997 15.0789L11.8995 15.0791ZM22.0391 6.81747L18.2329 10.6237C18.1618 10.6948 18.1219 10.7912 18.1219 10.8918C18.1219 10.9923 18.1618 11.0888 18.2329 11.1599C18.304 11.231 18.4005 11.271 18.5011 11.271C18.6016 11.271 18.6981 11.231 18.7692 11.1599L22.5754 7.35372C22.6106 7.31851 22.6385 7.27671 22.6576 7.23071C22.6766 7.1847 22.6864 7.13539 22.6864 7.0856C22.6864 7.0358 22.6766 6.9865 22.6576 6.94049C22.6385 6.89448 22.6106 6.85268 22.5754 6.81747C22.5401 6.78226 22.4983 6.75433 22.4523 6.73528C22.4063 6.71622 22.357 6.70641 22.3072 6.70641C22.2574 6.70641 22.2081 6.71622 22.1621 6.73528C22.1161 6.75433 22.0743 6.78226 22.0391 6.81747ZM11.5815 19.2282L10.1645 17.8111L2.6001 25.3755C3.44553 26.221 6.04607 26.2993 7.30529 25.0401L9.93145 22.4142C9.98778 22.3578 9.99201 21.1043 10.0383 20.7717L11.5815 19.2285V19.2282ZM11.9491 2.67708V4.87544H9.75107V7.65104H11.9494V9.8494H14.725V7.65104H16.9233V4.87544H14.7247V2.67708H11.9491Z" fill="#35B6BD"/>
</svg>
