<svg width="16" height="16" viewBox="0 0 16 16" fill="none" xmlns="http://www.w3.org/2000/svg">
<g clip-path="url(#clip0_718_6034)">
<path fill-rule="evenodd" clip-rule="evenodd" d="M12.7669 2.17987C11.3636 0.774914 9.49725 0.000820312 7.50898 0C3.41201 0 0.0776562 3.33426 0.0760156 7.43233C0.0754531 8.74237 0.417664 10.0212 1.06815 11.1484L0.0136719 15L3.95401 13.9664C5.03972 14.5586 6.26206 14.8707 7.50596 14.8711H7.5091C11.6056 14.8711 14.9403 11.5366 14.9419 7.43829C14.9427 5.45215 14.1703 3.58476 12.7669 2.17987ZM7.50898 13.6158H7.5064C6.3979 13.6153 5.31071 13.3174 4.36203 12.7546L4.13656 12.6207L1.7983 13.2341L2.42239 10.9543L2.27544 10.7206C1.65701 9.73696 1.33044 8.60008 1.331 7.43278C1.33229 4.02656 4.10377 1.25536 7.51147 1.25536C9.16161 1.2559 10.7128 1.89933 11.8792 3.06708C13.0455 4.23483 13.6875 5.78702 13.687 7.43782C13.6855 10.8443 10.9142 13.6158 7.50898 13.6158ZM10.8977 8.98879C10.712 8.89579 9.79889 8.44664 9.6286 8.38457C9.45849 8.32258 9.33453 8.29171 9.21085 8.47757C9.08698 8.66343 8.73111 9.08182 8.62271 9.20568C8.51431 9.32967 8.4061 9.34521 8.22033 9.25221C8.03459 9.15928 7.43618 8.96308 6.72675 8.33036C6.17468 7.83789 5.80198 7.22972 5.69358 7.04388C5.58537 6.85783 5.69265 6.76701 5.77505 6.66482C5.9761 6.41517 6.17743 6.15342 6.23933 6.02955C6.30129 5.90557 6.27026 5.7971 6.22376 5.70417C6.17743 5.61124 5.80601 4.69708 5.65128 4.32511C5.50041 3.96312 5.34741 4.01198 5.23334 4.00633C5.12513 4.00092 5.00126 3.99982 4.8774 3.99982C4.7536 3.99982 4.55237 4.04622 4.38209 4.23227C4.21189 4.41822 3.73217 4.86747 3.73217 5.78163C3.73217 6.69579 4.39765 7.57889 4.49049 7.70285C4.5833 7.82683 5.80015 9.70272 7.66315 10.5071C8.10626 10.6987 8.45215 10.8128 8.72196 10.8984C9.1669 11.0398 9.57167 11.0198 9.89173 10.972C10.2486 10.9186 10.9905 10.5227 11.1454 10.0889C11.3001 9.65505 11.3001 9.28324 11.2536 9.20568C11.2073 9.12825 11.0834 9.08182 10.8977 8.98879Z" fill="white"/>
</g>
<defs>
<clipPath id="clip0_718_6034">
<rect width="16" height="16" fill="white"/>
</clipPath>
</defs>
</svg>
